<?xml version="1.0" standalone="yes"?>

<svg version="1.1" viewBox="0.0 0.0 450.0 340.0" fill="none" stroke="none" stroke-linecap="square" stroke-miterlimit="10" xmlns="http://www.w3.org/2000/svg" xmlns:xlink="http://www.w3.org/1999/xlink"><clipPath id="p.0"><path d="m0 0l450.0 0l0 340.0l-450.0 0l0 -340.0z" clip-rule="nonzero"></path></clipPath><g clip-path="url(#p.0)"><path fill="#000000" fill-opacity="0.0" d="m0 0l450.0 0l0 340.0l-450.0 0z" fill-rule="nonzero"></path><path fill="#e1f2f6" fill-opacity="0.4372" d="m8.0 112.142l0 0c0 -4.496704 3.645298 -8.141998 8.142 -8.141998l247.716 0c2.1593933 0 4.2303467 0.8578186 5.757263 2.384735c1.5269165 1.5269241 2.384735 3.5978699 2.384735 5.757263l0 183.716c0 4.496704 -3.6452942 8.141998 -8.141998 8.141998l-247.716 0c-4.496702 0 -8.142 -3.6452942 -8.142 -8.141998z" fill-rule="nonzero"></path><path fill="#000000" fill-opacity="0.0" d="m72.0 256.0c0 -20.0 0.01574707 -30.0 0.03149414 -40.0c0.01574707 -10.0 0.03150177 -20.0 0.03150177 -40.0" fill-rule="nonzero"></path><path stroke="#000000" stroke-width="2.0" stroke-linejoin="round" stroke-linecap="butt" d="m72.0 256.0c0 -20.0 0.01574707 -30.0 0.03149414 -40.0c0.007873535 -5.0 0.01574707 -10.0 0.021652222 -16.25c0.0029525757 -3.125 0.00541687 -6.5625 0.0071411133 -10.46875l2.593994E-4 -1.28125" fill-rule="evenodd"></path><path fill="#000000" stroke="#000000" stroke-width="2.0" stroke-linecap="butt" d="m75.36401 188.00067l-3.3016205 -9.076874l-3.305313 9.075531z" fill-rule="evenodd"></path><path fill="#000000" fill-opacity="0.0" d="m176.0 176.0c0 20.0 0.01574707 30.0 0.03149414 40.0c0.01574707 10.0 0.03149414 20.0 0.03149414 40.0" fill-rule="nonzero"></path><path stroke="#000000" stroke-width="2.0" stroke-linejoin="round" stroke-linecap="butt" d="m176.0 176.0c0 20.0 0.01574707 30.0 0.03149414 40.0c0.007873535 5.0 0.01574707 10.0 0.021652222 16.25c0.002960205 3.125 0.00541687 6.5625 0.0071411133 10.46875l2.593994E-4 1.28125" fill-rule="evenodd"></path><path fill="#000000" stroke="#000000" stroke-width="2.0" stroke-linecap="butt" d="m172.75708 244.00067l3.305313 9.075531l3.3016205 -9.076874z" fill-rule="evenodd"></path><path fill="#000000" fill-opacity="0.0" d="m72.0 72.0c0 18.0 0.01574707 27.0 0.03149414 36.0c0.01574707 9.0 0.03150177 18.0 0.03150177 36.0" fill-rule="nonzero"></path><path stroke="#000000" stroke-width="2.0" stroke-linejoin="round" stroke-linecap="butt" d="m72.0 72.0c0 18.0 0.01574707 27.0 0.03149414 36.0c0.007873535 4.5 0.01574707 9.0 0.021652222 14.625l0.0071029663 9.375" fill-rule="evenodd"></path><path fill="#000000" stroke="#000000" stroke-width="2.0" stroke-linecap="butt" d="m68.75678 132.00076l3.305542 9.075439l3.3013916 -9.07695z" fill-rule="evenodd"></path><path fill="#6aa84f" d="m48.0 144.0l152.0 0l0 32.0l-152.0 0z" fill-rule="nonzero"></path><path stroke="#38761d" stroke-width="2.0" stroke-linejoin="round" stroke-linecap="butt" d="m48.0 144.0l152.0 0l0 32.0l-152.0 0z" fill-rule="nonzero"></path><path fill="#ffffff" d="m74.33203 165.86l-0.296875 -1.1875l-0.0625 0q-0.25 0.34375 -0.515625 0.609375q-0.25 0.25 -0.5625 0.421875q-0.296875 0.15625 -0.671875 0.234375q-0.375 0.078125 -0.875 0.078125q-0.53125 0 -0.984375 -0.15625q-0.453125 -0.15625 -0.796875 -0.46875q-0.328125 -0.3125 -0.515625 -0.796875q-0.1875 -0.484375 -0.1875 -1.140625q0 -1.28125 0.90625 -1.96875q0.90625 -0.6875 2.75 -0.75l1.4375 -0.046875l0 -0.546875q0 -0.515625 -0.125 -0.859375q-0.109375 -0.359375 -0.328125 -0.578125q-0.203125 -0.21875 -0.53125 -0.3125q-0.3125 -0.09375 -0.71875 -0.09375q-0.640625 0 -1.203125 0.1875q-0.5625 0.1875 -1.078125 0.453125l-0.5 -1.0625q0.578125 -0.3125 1.28125 -0.53125q0.71875 -0.21875 1.5 -0.21875q0.796875 0 1.375 0.15625q0.59375 0.15625 0.96875 0.515625q0.375 0.34375 0.5625 0.890625q0.1875 0.53125 0.1875 1.296875l0 5.875l-1.015625 0zm-2.609375 -1.0q0.46875 0 0.875 -0.140625q0.40625 -0.15625 0.703125 -0.453125q0.296875 -0.296875 0.46875 -0.75q0.171875 -0.46875 0.171875 -1.078125l0 -0.78125l-1.125 0.0625q-0.703125 0.03125 -1.1875 0.15625q-0.46875 0.125 -0.75 0.34375q-0.28125 0.21875 -0.40625 0.546875q-0.125 0.3125 -0.125 0.703125q0 0.71875 0.375 1.0625q0.375 0.328125 1.0 0.328125zm12.7734375 1.0l-1.3125 -4.8125q-0.03125 -0.140625 -0.078125 -0.3125q-0.046875 -0.1875 -0.09375 -0.375q-0.046875 -0.203125 -0.09375 -0.40625q-0.046875 -0.203125 -0.09375 -0.390625q-0.109375 -0.453125 -0.234375 -0.9375l-0.046875 0q-0.109375 0.484375 -0.203125 0.9375q-0.09375 0.390625 -0.1875 0.8125q-0.09375 0.40625 -0.1875 0.703125l-1.34375 4.78125l-1.640625 0l-2.203125 -8.578125l1.5 0l1.015625 4.5625q0.078125 0.34375 0.15625 0.765625q0.078125 0.40625 0.140625 0.8125q0.078125 0.390625 0.125 0.75q0.0625 0.359375 0.09375 0.578125l0.046875 0q0.046875 -0.203125 0.109375 -0.53125q0.0625 -0.34375 0.140625 -0.71875q0.09375 -0.390625 0.171875 -0.75q0.09375 -0.375 0.171875 -0.640625l1.390625 -4.828125l1.53125 0l1.34375 4.828125q0.078125 0.265625 0.15625 0.625q0.09375 0.359375 0.171875 0.734375q0.09375 0.375 0.15625 0.71875q0.078125 0.34375 0.109375 0.5625l0.046875 0q0.03125 -0.203125 0.078125 -0.53125q0.046875 -0.34375 0.109375 -0.75q0.078125 -0.40625 0.15625 -0.828125q0.09375 -0.4375 0.171875 -0.796875l1.078125 -4.5625l1.453125 0l-2.21875 8.578125l-1.6875 0zm10.265625 0l-0.296875 -1.1875l-0.0625 0q-0.25 0.34375 -0.515625 0.609375q-0.25 0.25 -0.5625 0.421875q-0.296875 0.15625 -0.671875 0.234375q-0.375 0.078125 -0.875 0.078125q-0.53125 0 -0.984375 -0.15625q-0.453125 -0.15625 -0.796875 -0.46875q-0.328125 -0.3125 -0.515625 -0.796875q-0.1875 -0.484375 -0.1875 -1.140625q0 -1.28125 0.90625 -1.96875q0.90625 -0.6875 2.75 -0.75l1.4375 -0.046875l0 -0.546875q0 -0.515625 -0.125 -0.859375q-0.109375 -0.359375 -0.328125 -0.578125q-0.203125 -0.21875 -0.53125 -0.3125q-0.3125 -0.09375 -0.71875 -0.09375q-0.640625 0 -1.203125 0.1875q-0.5625 0.1875 -1.078125 0.453125l-0.5 -1.0625q0.578125 -0.3125 1.28125 -0.53125q0.71875 -0.21875 1.5 -0.21875q0.796875 0 1.375 0.15625q0.59375 0.15625 0.96875 0.515625q0.375 0.34375 0.5625 0.890625q0.1875 0.53125 0.1875 1.296875l0 5.875l-1.015625 0zm-2.609375 -1.0q0.46875 0 0.875 -0.140625q0.40625 -0.15625 0.703125 -0.453125q0.296875 -0.296875 0.46875 -0.75q0.171875 -0.46875 0.171875 -1.078125l0 -0.78125l-1.125 0.0625q-0.703125 0.03125 -1.1875 0.15625q-0.46875 0.125 -0.75 0.34375q-0.28125 0.21875 -0.40625 0.546875q-0.125 0.3125 -0.125 0.703125q0 0.71875 0.375 1.0625q0.375 0.328125 1.0 0.328125zm7.6796875 1.0l-1.421875 0l0 -8.578125l1.421875 0l0 8.578125zm-1.53125 -10.90625q0 -0.46875 0.234375 -0.671875q0.25 -0.21875 0.59375 -0.21875q0.171875 0 0.328125 0.0625q0.15625 0.046875 0.265625 0.15625q0.109375 0.109375 0.171875 0.28125q0.078125 0.15625 0.078125 0.390625q0 0.453125 -0.25 0.6875q-0.25 0.21875 -0.59375 0.21875q-0.34375 0 -0.59375 -0.21875q-0.234375 -0.21875 -0.234375 -0.6875zm6.84375 9.890625q0.140625 0 0.3125 -0.015625q0.1875 -0.015625 0.34375 -0.03125q0.171875 -0.03125 0.296875 -0.0625q0.140625 -0.03125 0.21875 -0.046875l0 1.078125q-0.109375 0.046875 -0.265625 0.09375q-0.15625 0.046875 -0.34375 0.078125q-0.1875 0.046875 -0.390625 0.0625q-0.203125 0.015625 -0.390625 0.015625q-0.484375 0 -0.90625 -0.125q-0.40625 -0.125 -0.71875 -0.421875q-0.296875 -0.3125 -0.46875 -0.828125q-0.171875 -0.53125 -0.171875 -1.3125l0 -4.984375l-1.203125 0l0 -0.625l1.203125 -0.609375l0.609375 -1.796875l0.828125 0l0 1.96875l2.15625 0l0 1.0625l-2.15625 0l0 4.984375q0 0.75 0.234375 1.140625q0.25 0.375 0.8125 0.375zm4.25 1.015625l-1.421875 0l0 -8.578125l1.421875 0l0 8.578125zm-1.53125 -10.90625q0 -0.46875 0.234375 -0.671875q0.25 -0.21875 0.59375 -0.21875q0.171875 0 0.328125 0.0625q0.15625 0.046875 0.265625 0.15625q0.109375 0.109375 0.171875 0.28125q0.078125 0.15625 0.078125 0.390625q0 0.453125 -0.25 0.6875q-0.25 0.21875 -0.59375 0.21875q-0.34375 0 -0.59375 -0.21875q-0.234375 -0.21875 -0.234375 -0.6875zm9.609375 10.90625l0 -5.53125q0 -1.015625 -0.40625 -1.515625q-0.40625 -0.515625 -1.28125 -0.515625q-0.640625 0 -1.078125 0.203125q-0.421875 0.203125 -0.6875 0.609375q-0.25 0.390625 -0.375 0.96875q-0.109375 0.578125 -0.109375 1.328125l0 4.453125l-1.421875 0l0 -8.578125l1.15625 0l0.203125 1.15625l0.078125 0q0.203125 -0.34375 0.46875 -0.578125q0.265625 -0.25 0.578125 -0.40625q0.328125 -0.171875 0.6875 -0.25q0.359375 -0.078125 0.734375 -0.078125q1.4375 0 2.15625 0.75q0.71875 0.734375 0.71875 2.375l0 5.609375l-1.421875 0zm10.671875 -8.578125l0 0.875l-1.53125 0.21875q0.21875 0.265625 0.359375 0.703125q0.15625 0.421875 0.15625 0.953125q0 0.59375 -0.1875 1.109375q-0.1875 0.5 -0.5625 0.875q-0.359375 0.359375 -0.90625 0.5625q-0.546875 0.203125 -1.28125 0.203125q-0.171875 0 -0.34375 0q-0.171875 0 -0.28125 -0.03125q-0.125 0.078125 -0.265625 0.1875q-0.125 0.09375 -0.234375 0.21875q-0.09375 0.125 -0.171875 0.28125q-0.0625 0.15625 -0.0625 0.34375q0 0.203125 0.09375 0.34375q0.09375 0.125 0.25 0.203125q0.171875 0.0625 0.390625 0.09375q0.21875 0.015625 0.453125 0.015625l1.375 0q0.734375 0 1.234375 0.1875q0.5 0.171875 0.8125 0.484375q0.3125 0.3125 0.453125 0.75q0.140625 0.421875 0.140625 0.90625q0 0.6875 -0.25 1.234375q-0.25 0.546875 -0.78125 0.921875q-0.515625 0.375 -1.328125 0.578125q-0.796875 0.203125 -1.875 0.203125q-0.84375 0 -1.46875 -0.171875q-0.625 -0.15625 -1.046875 -0.46875q-0.40625 -0.3125 -0.609375 -0.75q-0.203125 -0.4375 -0.203125 -1.0q0 -0.46875 0.140625 -0.828125q0.15625 -0.34375 0.40625 -0.609375q0.265625 -0.265625 0.609375 -0.421875q0.34375 -0.171875 0.703125 -0.25q-0.328125 -0.15625 -0.546875 -0.46875q-0.203125 -0.328125 -0.203125 -0.734375q0 -0.484375 0.25 -0.828125q0.25 -0.34375 0.796875 -0.671875q-0.34375 -0.140625 -0.625 -0.390625q-0.265625 -0.25 -0.46875 -0.5625q-0.1875 -0.3125 -0.296875 -0.6875q-0.09375 -0.375 -0.09375 -0.78125q0 -0.6875 0.1875 -1.234375q0.203125 -0.546875 0.578125 -0.921875q0.390625 -0.390625 0.953125 -0.59375q0.578125 -0.203125 1.328125 -0.203125q0.296875 0 0.59375 0.046875q0.3125 0.03125 0.53125 0.109375l2.828125 0zm-6.328125 9.984375q0 0.296875 0.09375 0.546875q0.109375 0.25 0.328125 0.421875q0.234375 0.1875 0.609375 0.28125q0.390625 0.109375 0.953125 0.109375q1.453125 0 2.171875 -0.453125q0.71875 -0.4375 0.71875 -1.28125q0 -0.359375 -0.09375 -0.59375q-0.09375 -0.21875 -0.3125 -0.359375q-0.203125 -0.125 -0.5625 -0.171875q-0.34375 -0.046875 -0.859375 -0.046875l-1.375 0q-0.265625 0 -0.5625 0.0625q-0.296875 0.0625 -0.546875 0.234375q-0.25 0.171875 -0.40625 0.46875q-0.15625 0.3125 -0.15625 0.78125zm0.71875 -7.234375q0 0.90625 0.421875 1.34375q0.421875 0.4375 1.1875 0.4375q0.78125 0 1.1875 -0.4375q0.40625 -0.4375 0.40625 -1.359375q0 -0.96875 -0.421875 -1.421875q-0.40625 -0.453125 -1.1875 -0.453125q-0.765625 0 -1.1875 0.46875q-0.40625 0.46875 -0.40625 1.421875zm15.1640625 -2.90625q0.21875 0 0.5 0.015625q0.28125 0.015625 0.484375 0.0625l-0.1875 1.3125q-0.21875 -0.046875 -0.453125 -0.0625q-0.21875 -0.03125 -0.421875 -0.03125q-0.5 0 -0.90625 0.203125q-0.40625 0.1875 -0.703125 0.5625q-0.28125 0.375 -0.453125 0.890625q-0.15625 0.515625 -0.15625 1.15625l0 4.625l-1.421875 0l0 -8.578125l1.15625 0l0.171875 1.5625l0.0625 0q0.203125 -0.328125 0.421875 -0.640625q0.21875 -0.3125 0.5 -0.546875q0.28125 -0.25 0.625 -0.390625q0.34375 -0.140625 0.78125 -0.140625zm6.0546875 8.890625q-0.859375 0 -1.578125 -0.28125q-0.703125 -0.296875 -1.21875 -0.84375q-0.5 -0.5625 -0.78125 -1.375q-0.28125 -0.828125 -0.28125 -1.890625q0 -1.0625 0.25 -1.890625q0.265625 -0.84375 0.734375 -1.421875q0.46875 -0.578125 1.109375 -0.875q0.65625 -0.3125 1.453125 -0.3125q0.765625 0 1.375 0.28125q0.625 0.265625 1.046875 0.78125q0.4375 0.5 0.671875 1.203125q0.234375 0.703125 0.234375 1.5625l0 0.890625l-5.40625 0q0.03125 1.5 0.625 2.21875q0.609375 0.703125 1.78125 0.703125q0.40625 0 0.734375 -0.03125q0.34375 -0.046875 0.65625 -0.109375q0.328125 -0.078125 0.625 -0.1875q0.296875 -0.125 0.59375 -0.265625l0 1.265625q-0.3125 0.15625 -0.609375 0.265625q-0.296875 0.109375 -0.625 0.171875q-0.3125 0.078125 -0.65625 0.109375q-0.328125 0.03125 -0.734375 0.03125zm-0.34375 -7.71875q-0.890625 0 -1.421875 0.609375q-0.515625 0.609375 -0.59375 1.78125l3.84375 0q0 -0.53125 -0.109375 -0.96875q-0.109375 -0.453125 -0.328125 -0.765625q-0.21875 -0.3125 -0.5625 -0.484375q-0.34375 -0.171875 -0.828125 -0.171875zm7.09375 7.5625l-2.9375 -8.578125l1.46875 0l1.5625 4.765625q0.078125 0.265625 0.1875 0.671875q0.125 0.40625 0.234375 0.828125q0.125 0.421875 0.21875 0.796875q0.109375 0.375 0.140625 0.5625l0.046875 0q0.046875 -0.1875 0.140625 -0.5625q0.09375 -0.375 0.203125 -0.796875q0.125 -0.421875 0.234375 -0.828125q0.125 -0.40625 0.203125 -0.671875l1.5625 -4.765625l1.46875 0l-2.9375 8.578125l-1.796875 0zm7.5078125 0l-1.421875 0l0 -8.578125l1.421875 0l0 8.578125zm-1.53125 -10.90625q0 -0.46875 0.234375 -0.671875q0.25 -0.21875 0.59375 -0.21875q0.171875 0 0.328125 0.0625q0.15625 0.046875 0.265625 0.15625q0.109375 0.109375 0.171875 0.28125q0.078125 0.15625 0.078125 0.390625q0 0.453125 -0.25 0.6875q-0.25 0.21875 -0.59375 0.21875q-0.34375 0 -0.59375 -0.21875q-0.234375 -0.21875 -0.234375 -0.6875zm7.640625 11.0625q-0.859375 0 -1.578125 -0.28125q-0.703125 -0.296875 -1.21875 -0.84375q-0.5 -0.5625 -0.78125 -1.375q-0.28125 -0.828125 -0.28125 -1.890625q0 -1.0625 0.25 -1.890625q0.265625 -0.84375 0.734375 -1.421875q0.46875 -0.578125 1.109375 -0.875q0.65625 -0.3125 1.453125 -0.3125q0.765625 0 1.375 0.28125q0.625 0.265625 1.046875 0.78125q0.4375 0.5 0.671875 1.203125q0.234375 0.703125 0.234375 1.5625l0 0.890625l-5.40625 0q0.03125 1.5 0.625 2.21875q0.609375 0.703125 1.78125 0.703125q0.40625 0 0.734375 -0.03125q0.34375 -0.046875 0.65625 -0.109375q0.328125 -0.078125 0.625 -0.1875q0.296875 -0.125 0.59375 -0.265625l0 1.265625q-0.3125 0.15625 -0.609375 0.265625q-0.296875 0.109375 -0.625 0.171875q-0.3125 0.078125 -0.65625 0.109375q-0.328125 0.03125 -0.734375 0.03125zm-0.34375 -7.71875q-0.890625 0 -1.421875 0.609375q-0.515625 0.609375 -0.59375 1.78125l3.84375 0q0 -0.53125 -0.109375 -0.96875q-0.109375 -0.453125 -0.328125 -0.765625q-0.21875 -0.3125 -0.5625 -0.484375q-0.34375 -0.171875 -0.828125 -0.171875zm12.03125 7.5625l-1.3125 -4.8125q-0.03125 -0.140625 -0.078125 -0.3125q-0.046875 -0.1875 -0.09375 -0.375q-0.046875 -0.203125 -0.09375 -0.40625q-0.046875 -0.203125 -0.09375 -0.390625q-0.109375 -0.453125 -0.234375 -0.9375l-0.046875 0q-0.109375 0.484375 -0.203125 0.9375q-0.09375 0.390625 -0.1875 0.8125q-0.09375 0.40625 -0.1875 0.703125l-1.34375 4.78125l-1.640625 0l-2.203125 -8.578125l1.5 0l1.015625 4.5625q0.078125 0.34375 0.15625 0.765625q0.078125 0.40625 0.140625 0.8125q0.078125 0.390625 0.125 0.75q0.0625 0.359375 0.09375 0.578125l0.046875 0q0.046875 -0.203125 0.109375 -0.53125q0.0625 -0.34375 0.140625 -0.71875q0.09375 -0.390625 0.171875 -0.75q0.09375 -0.375 0.171875 -0.640625l1.390625 -4.828125l1.53125 0l1.34375 4.828125q0.078125 0.265625 0.15625 0.625q0.09375 0.359375 0.171875 0.734375q0.09375 0.375 0.15625 0.71875q0.078125 0.34375 0.109375 0.5625l0.046875 0q0.03125 -0.203125 0.078125 -0.53125q0.046875 -0.34375 0.109375 -0.75q0.078125 -0.40625 0.15625 -0.828125q0.09375 -0.4375 0.171875 -0.796875l1.078125 -4.5625l1.453125 0l-2.21875 8.578125l-1.6875 0z" fill-rule="nonzero"></path><path fill="#6fa8dc" d="m48.0 256.0l152.0 0l0 32.0l-152.0 0z" fill-rule="nonzero"></path><path stroke="#0b5394" stroke-width="2.0" stroke-linejoin="round" stroke-linecap="butt" d="m48.0 256.0l152.0 0l0 32.0l-152.0 0z" fill-rule="nonzero"></path><path fill="#ffffff" d="m69.57422 277.86l-0.296875 -1.1875l-0.0625 0q-0.25 0.34375 -0.515625 0.609375q-0.25 0.25 -0.5625 0.421875q-0.296875 0.15625 -0.671875 0.234375q-0.375 0.078125 -0.875 0.078125q-0.53125 0 -0.984375 -0.15625q-0.453125 -0.15625 -0.796875 -0.46875q-0.328125 -0.3125 -0.515625 -0.796875q-0.1875 -0.484375 -0.1875 -1.140625q0 -1.28125 0.90625 -1.96875q0.90625 -0.6875 2.75 -0.75l1.4375 -0.046875l0 -0.546875q0 -0.515625 -0.125 -0.859375q-0.109375 -0.359375 -0.328125 -0.578125q-0.203125 -0.21875 -0.53125 -0.3125q-0.3125 -0.09375 -0.71875 -0.09375q-0.640625 0 -1.203125 0.1875q-0.5625 0.1875 -1.078125 0.453125l-0.5 -1.0625q0.578125 -0.3125 1.28125 -0.53125q0.71875 -0.21875 1.5 -0.21875q0.796875 0 1.375 0.15625q0.59375 0.15625 0.96875 0.515625q0.375 0.34375 0.5625 0.890625q0.1875 0.53125 0.1875 1.296875l0 5.875l-1.015625 0zm-2.609375 -1.0q0.46875 0 0.875 -0.140625q0.40625 -0.15625 0.703125 -0.453125q0.296875 -0.296875 0.46875 -0.75q0.171875 -0.46875 0.171875 -1.078125l0 -0.78125l-1.125 0.0625q-0.703125 0.03125 -1.1875 0.15625q-0.46875 0.125 -0.75 0.34375q-0.28125 0.21875 -0.40625 0.546875q-0.125 0.3125 -0.125 0.703125q0 0.71875 0.375 1.0625q0.375 0.328125 1.0 0.328125zm12.7734375 1.0l-1.3125 -4.8125q-0.03125 -0.140625 -0.078125 -0.3125q-0.046875 -0.1875 -0.09375 -0.375q-0.046875 -0.203125 -0.09375 -0.40625q-0.046875 -0.203125 -0.09375 -0.390625q-0.109375 -0.453125 -0.234375 -0.9375l-0.046875 0q-0.109375 0.484375 -0.203125 0.9375q-0.09375 0.390625 -0.1875 0.8125q-0.09375 0.40625 -0.1875 0.703125l-1.34375 4.78125l-1.640625 0l-2.203125 -8.578125l1.5 0l1.015625 4.5625q0.078125 0.34375 0.15625 0.765625q0.078125 0.40625 0.140625 0.8125q0.078125 0.390625 0.125 0.75q0.0625 0.359375 0.09375 0.578125l0.046875 0q0.046875 -0.203125 0.109375 -0.53125q0.0625 -0.34375 0.140625 -0.71875q0.09375 -0.390625 0.171875 -0.75q0.09375 -0.375 0.171875 -0.640625l1.390625 -4.828125l1.53125 0l1.34375 4.828125q0.078125 0.265625 0.15625 0.625q0.09375 0.359375 0.171875 0.734375q0.09375 0.375 0.15625 0.71875q0.078125 0.34375 0.109375 0.5625l0.046875 0q0.03125 -0.203125 0.078125 -0.53125q0.046875 -0.34375 0.109375 -0.75q0.078125 -0.40625 0.15625 -0.828125q0.09375 -0.4375 0.171875 -0.796875l1.078125 -4.5625l1.453125 0l-2.21875 8.578125l-1.6875 0zm10.265625 0l-0.296875 -1.1875l-0.0625 0q-0.25 0.34375 -0.515625 0.609375q-0.25 0.25 -0.5625 0.421875q-0.296875 0.15625 -0.671875 0.234375q-0.375 0.078125 -0.875 0.078125q-0.53125 0 -0.984375 -0.15625q-0.453125 -0.15625 -0.796875 -0.46875q-0.328125 -0.3125 -0.515625 -0.796875q-0.1875 -0.484375 -0.1875 -1.140625q0 -1.28125 0.90625 -1.96875q0.90625 -0.6875 2.75 -0.75l1.4375 -0.046875l0 -0.546875q0 -0.515625 -0.125 -0.859375q-0.109375 -0.359375 -0.328125 -0.578125q-0.203125 -0.21875 -0.53125 -0.3125q-0.3125 -0.09375 -0.71875 -0.09375q-0.640625 0 -1.203125 0.1875q-0.5625 0.1875 -1.078125 0.453125l-0.5 -1.0625q0.578125 -0.3125 1.28125 -0.53125q0.71875 -0.21875 1.5 -0.21875q0.796875 0 1.375 0.15625q0.59375 0.15625 0.96875 0.515625q0.375 0.34375 0.5625 0.890625q0.1875 0.53125 0.1875 1.296875l0 5.875l-1.015625 0zm-2.609375 -1.0q0.46875 0 0.875 -0.140625q0.40625 -0.15625 0.703125 -0.453125q0.296875 -0.296875 0.46875 -0.75q0.171875 -0.46875 0.171875 -1.078125l0 -0.78125l-1.125 0.0625q-0.703125 0.03125 -1.1875 0.15625q-0.46875 0.125 -0.75 0.34375q-0.28125 0.21875 -0.40625 0.546875q-0.125 0.3125 -0.125 0.703125q0 0.71875 0.375 1.0625q0.375 0.328125 1.0 0.328125zm7.6796875 1.0l-1.421875 0l0 -8.578125l1.421875 0l0 8.578125zm-1.53125 -10.90625q0 -0.46875 0.234375 -0.671875q0.25 -0.21875 0.59375 -0.21875q0.171875 0 0.328125 0.0625q0.15625 0.046875 0.265625 0.15625q0.109375 0.109375 0.171875 0.28125q0.078125 0.15625 0.078125 0.390625q0 0.453125 -0.25 0.6875q-0.25 0.21875 -0.59375 0.21875q-0.34375 0 -0.59375 -0.21875q-0.234375 -0.21875 -0.234375 -0.6875zm6.84375 9.890625q0.140625 0 0.3125 -0.015625q0.1875 -0.015625 0.34375 -0.03125q0.171875 -0.03125 0.296875 -0.0625q0.140625 -0.03125 0.21875 -0.046875l0 1.078125q-0.109375 0.046875 -0.265625 0.09375q-0.15625 0.046875 -0.34375 0.078125q-0.1875 0.046875 -0.390625 0.0625q-0.203125 0.015625 -0.390625 0.015625q-0.484375 0 -0.90625 -0.125q-0.40625 -0.125 -0.71875 -0.421875q-0.296875 -0.3125 -0.46875 -0.828125q-0.171875 -0.53125 -0.171875 -1.3125l0 -4.984375l-1.203125 0l0 -0.625l1.203125 -0.609375l0.609375 -1.796875l0.828125 0l0 1.96875l2.15625 0l0 1.0625l-2.15625 0l0 4.984375q0 0.75 0.234375 1.140625q0.25 0.375 0.8125 0.375zm4.25 1.015625l-1.421875 0l0 -8.578125l1.421875 0l0 8.578125zm-1.53125 -10.90625q0 -0.46875 0.234375 -0.671875q0.25 -0.21875 0.59375 -0.21875q0.171875 0 0.328125 0.0625q0.15625 0.046875 0.265625 0.15625q0.109375 0.109375 0.171875 0.28125q0.078125 0.15625 0.078125 0.390625q0 0.453125 -0.25 0.6875q-0.25 0.21875 -0.59375 0.21875q-0.34375 0 -0.59375 -0.21875q-0.234375 -0.21875 -0.234375 -0.6875zm9.609375 10.90625l0 -5.53125q0 -1.015625 -0.40625 -1.515625q-0.40625 -0.515625 -1.28125 -0.515625q-0.640625 0 -1.078125 0.203125q-0.421875 0.203125 -0.6875 0.609375q-0.25 0.390625 -0.375 0.96875q-0.109375 0.578125 -0.109375 1.328125l0 4.453125l-1.421875 0l0 -8.578125l1.15625 0l0.203125 1.15625l0.078125 0q0.203125 -0.34375 0.46875 -0.578125q0.265625 -0.25 0.578125 -0.40625q0.328125 -0.171875 0.6875 -0.25q0.359375 -0.078125 0.734375 -0.078125q1.4375 0 2.15625 0.75q0.71875 0.734375 0.71875 2.375l0 5.609375l-1.421875 0zm10.671875 -8.578125l0 0.875l-1.53125 0.21875q0.21875 0.265625 0.359375 0.703125q0.15625 0.421875 0.15625 0.953125q0 0.59375 -0.1875 1.109375q-0.1875 0.5 -0.5625 0.875q-0.359375 0.359375 -0.90625 0.5625q-0.546875 0.203125 -1.28125 0.203125q-0.171875 0 -0.34375 0q-0.171875 0 -0.28125 -0.03125q-0.125 0.078125 -0.265625 0.1875q-0.125 0.09375 -0.234375 0.21875q-0.09375 0.125 -0.171875 0.28125q-0.0625 0.15625 -0.0625 0.34375q0 0.203125 0.09375 0.34375q0.09375 0.125 0.25 0.203125q0.171875 0.0625 0.390625 0.09375q0.21875 0.015625 0.453125 0.015625l1.375 0q0.734375 0 1.234375 0.1875q0.5 0.171875 0.8125 0.484375q0.3125 0.3125 0.453125 0.75q0.140625 0.421875 0.140625 0.90625q0 0.6875 -0.25 1.234375q-0.25 0.546875 -0.78125 0.921875q-0.515625 0.375 -1.328125 0.578125q-0.796875 0.203125 -1.875 0.203125q-0.84375 0 -1.46875 -0.171875q-0.625 -0.15625 -1.046875 -0.46875q-0.40625 -0.3125 -0.609375 -0.75q-0.203125 -0.4375 -0.203125 -1.0q0 -0.46875 0.140625 -0.828125q0.15625 -0.34375 0.40625 -0.609375q0.265625 -0.265625 0.609375 -0.421875q0.34375 -0.171875 0.703125 -0.25q-0.328125 -0.15625 -0.546875 -0.46875q-0.203125 -0.328125 -0.203125 -0.734375q0 -0.484375 0.25 -0.828125q0.25 -0.34375 0.796875 -0.671875q-0.34375 -0.140625 -0.625 -0.390625q-0.265625 -0.25 -0.46875 -0.5625q-0.1875 -0.3125 -0.296875 -0.6875q-0.09375 -0.375 -0.09375 -0.78125q0 -0.6875 0.1875 -1.234375q0.203125 -0.546875 0.578125 -0.921875q0.390625 -0.390625 0.953125 -0.59375q0.578125 -0.203125 1.328125 -0.203125q0.296875 0 0.59375 0.046875q0.3125 0.03125 0.53125 0.109375l2.828125 0zm-6.328125 9.984375q0 0.296875 0.09375 0.546875q0.109375 0.25 0.328125 0.421875q0.234375 0.1875 0.609375 0.28125q0.390625 0.109375 0.953125 0.109375q1.453125 0 2.171875 -0.453125q0.71875 -0.4375 0.71875 -1.28125q0 -0.359375 -0.09375 -0.59375q-0.09375 -0.21875 -0.3125 -0.359375q-0.203125 -0.125 -0.5625 -0.171875q-0.34375 -0.046875 -0.859375 -0.046875l-1.375 0q-0.265625 0 -0.5625 0.0625q-0.296875 0.0625 -0.546875 0.234375q-0.25 0.171875 -0.40625 0.46875q-0.15625 0.3125 -0.15625 0.78125zm0.71875 -7.234375q0 0.90625 0.421875 1.34375q0.421875 0.4375 1.1875 0.4375q0.78125 0 1.1875 -0.4375q0.40625 -0.4375 0.40625 -1.359375q0 -0.96875 -0.421875 -1.421875q-0.40625 -0.453125 -1.1875 -0.453125q-0.765625 0 -1.1875 0.46875q-0.40625 0.46875 -0.40625 1.421875zm15.1640625 -2.90625q0.21875 0 0.5 0.015625q0.28125 0.015625 0.484375 0.0625l-0.1875 1.3125q-0.21875 -0.046875 -0.453125 -0.0625q-0.21875 -0.03125 -0.421875 -0.03125q-0.5 0 -0.90625 0.203125q-0.40625 0.1875 -0.703125 0.5625q-0.28125 0.375 -0.453125 0.890625q-0.15625 0.515625 -0.15625 1.15625l0 4.625l-1.421875 0l0 -8.578125l1.15625 0l0.171875 1.5625l0.0625 0q0.203125 -0.328125 0.421875 -0.640625q0.21875 -0.3125 0.5 -0.546875q0.28125 -0.25 0.625 -0.390625q0.34375 -0.140625 0.78125 -0.140625zm6.0546875 8.890625q-0.859375 0 -1.578125 -0.28125q-0.703125 -0.296875 -1.21875 -0.84375q-0.5 -0.5625 -0.78125 -1.375q-0.28125 -0.828125 -0.28125 -1.890625q0 -1.0625 0.25 -1.890625q0.265625 -0.84375 0.734375 -1.421875q0.46875 -0.578125 1.109375 -0.875q0.65625 -0.3125 1.453125 -0.3125q0.765625 0 1.375 0.28125q0.625 0.265625 1.046875 0.78125q0.4375 0.5 0.671875 1.203125q0.234375 0.703125 0.234375 1.5625l0 0.890625l-5.40625 0q0.03125 1.5 0.625 2.21875q0.609375 0.703125 1.78125 0.703125q0.40625 0 0.734375 -0.03125q0.34375 -0.046875 0.65625 -0.109375q0.328125 -0.078125 0.625 -0.1875q0.296875 -0.125 0.59375 -0.265625l0 1.265625q-0.3125 0.15625 -0.609375 0.265625q-0.296875 0.109375 -0.625 0.171875q-0.3125 0.078125 -0.65625 0.109375q-0.328125 0.03125 -0.734375 0.03125zm-0.34375 -7.71875q-0.890625 0 -1.421875 0.609375q-0.515625 0.609375 -0.59375 1.78125l3.84375 0q0 -0.53125 -0.109375 -0.96875q-0.109375 -0.453125 -0.328125 -0.765625q-0.21875 -0.3125 -0.5625 -0.484375q-0.34375 -0.171875 -0.828125 -0.171875zm7.09375 7.5625l-2.9375 -8.578125l1.46875 0l1.5625 4.765625q0.078125 0.265625 0.1875 0.671875q0.125 0.40625 0.234375 0.828125q0.125 0.421875 0.21875 0.796875q0.109375 0.375 0.140625 0.5625l0.046875 0q0.046875 -0.1875 0.140625 -0.5625q0.09375 -0.375 0.203125 -0.796875q0.125 -0.421875 0.234375 -0.828125q0.125 -0.40625 0.203125 -0.671875l1.5625 -4.765625l1.46875 0l-2.9375 8.578125l-1.796875 0zm7.5078125 0l-1.421875 0l0 -8.578125l1.421875 0l0 8.578125zm-1.53125 -10.90625q0 -0.46875 0.234375 -0.671875q0.25 -0.21875 0.59375 -0.21875q0.171875 0 0.328125 0.0625q0.15625 0.046875 0.265625 0.15625q0.109375 0.109375 0.171875 0.28125q0.078125 0.15625 0.078125 0.390625q0 0.453125 -0.25 0.6875q-0.25 0.21875 -0.59375 0.21875q-0.34375 0 -0.59375 -0.21875q-0.234375 -0.21875 -0.234375 -0.6875zm9.390625 8.546875q0 0.625 -0.234375 1.09375q-0.21875 0.46875 -0.65625 0.796875q-0.421875 0.3125 -1.03125 0.46875q-0.59375 0.15625 -1.34375 0.15625q-0.84375 0 -1.453125 -0.140625q-0.609375 -0.140625 -1.078125 -0.40625l0 -1.296875q0.25 0.125 0.546875 0.25q0.296875 0.125 0.625 0.21875q0.328125 0.09375 0.671875 0.15625q0.34375 0.046875 0.6875 0.046875q0.515625 0 0.859375 -0.078125q0.359375 -0.09375 0.578125 -0.25q0.234375 -0.15625 0.328125 -0.390625q0.109375 -0.234375 0.109375 -0.515625q0 -0.234375 -0.078125 -0.421875q-0.078125 -0.203125 -0.296875 -0.390625q-0.203125 -0.203125 -0.5625 -0.390625q-0.359375 -0.203125 -0.921875 -0.4375q-0.5625 -0.25 -1.015625 -0.484375q-0.4375 -0.234375 -0.75 -0.515625q-0.3125 -0.296875 -0.484375 -0.671875q-0.171875 -0.375 -0.171875 -0.90625q0 -0.546875 0.21875 -0.96875q0.21875 -0.421875 0.609375 -0.703125q0.390625 -0.296875 0.9375 -0.4375q0.546875 -0.15625 1.21875 -0.15625q0.75 0 1.375 0.171875q0.640625 0.15625 1.203125 0.421875l-0.5 1.140625q-0.5 -0.21875 -1.046875 -0.390625q-0.53125 -0.171875 -1.078125 -0.171875q-0.796875 0 -1.1875 0.265625q-0.375 0.265625 -0.375 0.75q0 0.265625 0.078125 0.46875q0.09375 0.203125 0.3125 0.390625q0.21875 0.171875 0.578125 0.359375q0.375 0.1875 0.921875 0.40625q0.5625 0.234375 1.0 0.46875q0.453125 0.234375 0.765625 0.53125q0.3125 0.296875 0.46875 0.671875q0.171875 0.375 0.171875 0.890625zm3.5 2.359375l-1.421875 0l0 -8.578125l1.421875 0l0 8.578125zm-1.53125 -10.90625q0 -0.46875 0.234375 -0.671875q0.25 -0.21875 0.59375 -0.21875q0.171875 0 0.328125 0.0625q0.15625 0.046875 0.265625 0.15625q0.109375 0.109375 0.171875 0.28125q0.078125 0.15625 0.078125 0.390625q0 0.453125 -0.25 0.6875q-0.25 0.21875 -0.59375 0.21875q-0.34375 0 -0.59375 -0.21875q-0.234375 -0.21875 -0.234375 -0.6875zm11.25 6.59375q0 1.078125 -0.265625 1.90625q-0.265625 0.828125 -0.75 1.40625q-0.484375 0.5625 -1.1875 0.859375q-0.6875 0.296875 -1.5625 0.296875q-0.796875 0 -1.484375 -0.296875q-0.671875 -0.296875 -1.171875 -0.859375q-0.5 -0.578125 -0.78125 -1.40625q-0.265625 -0.828125 -0.265625 -1.90625q0 -1.0625 0.25 -1.875q0.265625 -0.828125 0.75 -1.390625q0.484375 -0.578125 1.1875 -0.859375q0.703125 -0.296875 1.5625 -0.296875q0.8125 0 1.484375 0.296875q0.6875 0.28125 1.171875 0.859375q0.5 0.5625 0.78125 1.390625q0.28125 0.8125 0.28125 1.875zm-6.0 0q0 1.640625 0.53125 2.46875q0.53125 0.8125 1.734375 0.8125q1.203125 0 1.734375 -0.8125q0.53125 -0.828125 0.53125 -2.46875q0 -1.625 -0.546875 -2.4375q-0.53125 -0.8125 -1.734375 -0.8125q-1.203125 0 -1.734375 0.8125q-0.515625 0.8125 -0.515625 2.4375zm13.59375 4.3125l0 -5.53125q0 -1.015625 -0.40625 -1.515625q-0.40625 -0.515625 -1.28125 -0.515625q-0.640625 0 -1.078125 0.203125q-0.421875 0.203125 -0.6875 0.609375q-0.25 0.390625 -0.375 0.96875q-0.109375 0.578125 -0.109375 1.328125l0 4.453125l-1.421875 0l0 -8.578125l1.15625 0l0.203125 1.15625l0.078125 0q0.203125 -0.34375 0.46875 -0.578125q0.265625 -0.25 0.578125 -0.40625q0.328125 -0.171875 0.6875 -0.25q0.359375 -0.078125 0.734375 -0.078125q1.4375 0 2.15625 0.75q0.71875 0.734375 0.71875 2.375l0 5.609375l-1.421875 0z" fill-rule="nonzero"></path><path fill="#d9ead3" d="m120.0 205.33344l0 0c0 -2.945572 2.3878632 -5.333435 5.3334427 -5.333435l93.33312 0c1.414505 0 2.7710876 0.56192017 3.7713013 1.5621338c1.0002136 1.0002136 1.5621338 2.3567963 1.5621338 3.7713013l0 21.33313c0 2.945572 -2.3878632 5.333435 -5.333435 5.333435l-93.33312 0c-2.9455795 0 -5.3334427 -2.3878632 -5.3334427 -5.333435z" fill-rule="nonzero"></path><path stroke="#6aa84f" stroke-width="1.0" stroke-linejoin="round" stroke-linecap="butt" d="m120.0 205.33344l0 0c0 -2.945572 2.3878632 -5.333435 5.3334427 -5.333435l93.33312 0c1.414505 0 2.7710876 0.56192017 3.7713013 1.5621338c1.0002136 1.0002136 1.5621338 2.3567963 1.5621338 3.7713013l0 21.33313c0 2.945572 -2.3878632 5.333435 -5.333435 5.333435l-93.33312 0c-2.9455795 0 -5.3334427 -2.3878632 -5.3334427 -5.333435z" fill-rule="nonzero"></path><path fill="#000000" d="m137.73921 213.83125l0 0.71875l-1.25 0.171875q0.1875 0.21875 0.296875 0.5625q0.125 0.34375 0.125 0.78125q0 0.484375 -0.15625 0.90625q-0.140625 0.40625 -0.453125 0.703125q-0.296875 0.296875 -0.734375 0.46875q-0.4375 0.15625 -1.03125 0.15625q-0.140625 0 -0.28125 0q-0.140625 0 -0.234375 -0.015625q-0.109375 0.0625 -0.21875 0.140625q-0.09375 0.078125 -0.1875 0.1875q-0.078125 0.09375 -0.140625 0.21875q-0.046875 0.125 -0.046875 0.28125q0 0.171875 0.078125 0.28125q0.078125 0.09375 0.203125 0.15625q0.140625 0.0625 0.3125 0.078125q0.171875 0.015625 0.375 0.015625l1.109375 0q0.59375 0 1.0 0.15625q0.40625 0.140625 0.65625 0.40625q0.265625 0.25 0.375 0.59375q0.125 0.34375 0.125 0.734375q0 0.546875 -0.21875 0.984375q-0.203125 0.453125 -0.625 0.765625q-0.421875 0.3125 -1.078125 0.46875q-0.640625 0.171875 -1.53125 0.171875q-0.671875 0 -1.1875 -0.140625q-0.5 -0.125 -0.84375 -0.390625q-0.328125 -0.25 -0.5 -0.609375q-0.171875 -0.359375 -0.171875 -0.796875q0 -0.390625 0.125 -0.6875q0.125 -0.28125 0.328125 -0.5q0.21875 -0.203125 0.484375 -0.328125q0.28125 -0.140625 0.578125 -0.203125q-0.265625 -0.125 -0.4375 -0.375q-0.171875 -0.265625 -0.171875 -0.609375q0 -0.375 0.203125 -0.65625q0.203125 -0.296875 0.640625 -0.5625q-0.265625 -0.109375 -0.5 -0.3125q-0.21875 -0.203125 -0.375 -0.453125q-0.15625 -0.265625 -0.25 -0.5625q-0.078125 -0.3125 -0.078125 -0.625q0 -0.5625 0.15625 -1.0q0.15625 -0.453125 0.46875 -0.765625q0.3125 -0.3125 0.765625 -0.46875q0.46875 -0.171875 1.09375 -0.171875q0.234375 0 0.484375 0.03125q0.25 0.03125 0.421875 0.09375l2.296875 0zm-5.140625 8.109375q0 0.234375 0.078125 0.4375q0.078125 0.203125 0.265625 0.34375q0.1875 0.15625 0.5 0.234375q0.3125 0.09375 0.765625 0.09375q1.1875 0 1.765625 -0.375q0.59375 -0.359375 0.59375 -1.046875q0 -0.28125 -0.078125 -0.46875q-0.078125 -0.1875 -0.25 -0.296875q-0.171875 -0.09375 -0.46875 -0.125q-0.28125 -0.046875 -0.6875 -0.046875l-1.125 0q-0.21875 0 -0.46875 0.046875q-0.234375 0.046875 -0.4375 0.1875q-0.1875 0.140625 -0.328125 0.375q-0.125 0.25 -0.125 0.640625zm0.578125 -5.875q0 0.734375 0.34375 1.09375q0.34375 0.359375 0.96875 0.359375q0.640625 0 0.96875 -0.359375q0.328125 -0.359375 0.328125 -1.109375q0 -0.78125 -0.34375 -1.140625q-0.328125 -0.375 -0.953125 -0.375q-0.640625 0 -0.984375 0.390625q-0.328125 0.375 -0.328125 1.140625zm7.2642365 4.734375l-1.15625 0l0 -6.96875l1.15625 0l0 6.96875zm-1.25 -8.859375q0 -0.375 0.1875 -0.546875q0.203125 -0.171875 0.484375 -0.171875q0.140625 0 0.265625 0.046875q0.125 0.03125 0.21875 0.125q0.09375 0.09375 0.140625 0.234375q0.0625 0.125 0.0625 0.3125q0 0.375 -0.203125 0.5625q-0.203125 0.171875 -0.484375 0.171875q-0.28125 0 -0.484375 -0.171875q-0.1875 -0.1875 -0.1875 -0.5625zm4.808548 8.859375l-2.375 -6.96875l1.1875 0l1.265625 3.875q0.078125 0.21875 0.171875 0.546875q0.09375 0.328125 0.1875 0.671875q0.09375 0.34375 0.171875 0.65625q0.078125 0.296875 0.109375 0.453125l0.046875 0q0.03125 -0.15625 0.09375 -0.453125q0.078125 -0.3125 0.171875 -0.65625q0.109375 -0.34375 0.203125 -0.671875q0.09375 -0.328125 0.15625 -0.546875l1.265625 -3.875l1.203125 0l-2.390625 6.96875l-1.46875 0zm7.8686066 0.125q-0.703125 0 -1.28125 -0.234375q-0.578125 -0.234375 -1.0 -0.6875q-0.40625 -0.453125 -0.640625 -1.109375q-0.21875 -0.671875 -0.21875 -1.53125q0 -0.859375 0.203125 -1.53125q0.21875 -0.6875 0.59375 -1.15625q0.375 -0.484375 0.90625 -0.71875q0.53125 -0.25 1.171875 -0.25q0.640625 0 1.140625 0.234375q0.5 0.21875 0.84375 0.625q0.34375 0.40625 0.53125 0.984375q0.1875 0.578125 0.1875 1.265625l0 0.71875l-4.390625 0q0.03125 1.234375 0.515625 1.8125q0.484375 0.578125 1.453125 0.578125q0.328125 0 0.59375 -0.03125q0.28125 -0.046875 0.53125 -0.09375q0.265625 -0.0625 0.5 -0.15625q0.25 -0.09375 0.5 -0.203125l0 1.015625q-0.265625 0.125 -0.515625 0.21875q-0.234375 0.09375 -0.5 0.140625q-0.25 0.0625 -0.53125 0.078125q-0.265625 0.03125 -0.59375 0.03125zm-0.28125 -6.265625q-0.734375 0 -1.15625 0.5q-0.421875 0.5 -0.484375 1.4375l3.125 0q0 -0.4375 -0.09375 -0.78125q-0.078125 -0.359375 -0.265625 -0.609375q-0.171875 -0.265625 -0.453125 -0.40625q-0.28125 -0.140625 -0.671875 -0.140625zm11.141693 0.046875l-1.546875 0l0 6.09375l-1.15625 0l0 -6.09375l-1.234375 0l0 -0.484375l1.234375 -0.4375l0 -0.609375q0 -0.671875 0.140625 -1.109375q0.140625 -0.453125 0.40625 -0.71875q0.265625 -0.265625 0.65625 -0.375q0.40625 -0.125 0.890625 -0.125q0.375 0 0.6875 0.078125q0.328125 0.078125 0.578125 0.15625l-0.3125 0.90625q-0.1875 -0.078125 -0.421875 -0.125q-0.234375 -0.0625 -0.484375 -0.0625q-0.25 0 -0.4375 0.0625q-0.1875 0.0625 -0.3125 0.21875q-0.109375 0.15625 -0.171875 0.421875q-0.0625 0.25 -0.0625 0.671875l0 0.65625l1.546875 0l0 0.875zm4.120682 6.21875q-0.703125 0 -1.28125 -0.234375q-0.578125 -0.234375 -1.0 -0.6875q-0.40625 -0.453125 -0.640625 -1.109375q-0.21875 -0.671875 -0.21875 -1.53125q0 -0.859375 0.203125 -1.53125q0.21875 -0.6875 0.59375 -1.15625q0.375 -0.484375 0.90625 -0.71875q0.53125 -0.25 1.171875 -0.25q0.640625 0 1.140625 0.234375q0.5 0.21875 0.84375 0.625q0.34375 0.40625 0.53125 0.984375q0.1875 0.578125 0.1875 1.265625l0 0.71875l-4.390625 0q0.03125 1.234375 0.515625 1.8125q0.484375 0.578125 1.453125 0.578125q0.328125 0 0.59375 -0.03125q0.28125 -0.046875 0.53125 -0.09375q0.265625 -0.0625 0.5 -0.15625q0.25 -0.09375 0.5 -0.203125l0 1.015625q-0.265625 0.125 -0.515625 0.21875q-0.234375 0.09375 -0.5 0.140625q-0.25 0.0625 -0.53125 0.078125q-0.265625 0.03125 -0.59375 0.03125zm-0.28125 -6.265625q-0.734375 0 -1.15625 0.5q-0.421875 0.5 -0.484375 1.4375l3.125 0q0 -0.4375 -0.09375 -0.78125q-0.078125 -0.359375 -0.265625 -0.609375q-0.171875 -0.265625 -0.453125 -0.40625q-0.28125 -0.140625 -0.671875 -0.140625zm7.4138794 6.265625q-0.703125 0 -1.28125 -0.234375q-0.578125 -0.234375 -1.0 -0.6875q-0.40625 -0.453125 -0.640625 -1.109375q-0.21875 -0.671875 -0.21875 -1.53125q0 -0.859375 0.203125 -1.53125q0.21875 -0.6875 0.59375 -1.15625q0.375 -0.484375 0.90625 -0.71875q0.53125 -0.25 1.171875 -0.25q0.640625 0 1.140625 0.234375q0.5 0.21875 0.84375 0.625q0.34375 0.40625 0.53125 0.984375q0.1875 0.578125 0.1875 1.265625l0 0.71875l-4.390625 0q0.03125 1.234375 0.515625 1.8125q0.484375 0.578125 1.453125 0.578125q0.328125 0 0.59375 -0.03125q0.28125 -0.046875 0.53125 -0.09375q0.265625 -0.0625 0.5 -0.15625q0.25 -0.09375 0.5 -0.203125l0 1.015625q-0.265625 0.125 -0.515625 0.21875q-0.234375 0.09375 -0.5 0.140625q-0.25 0.0625 -0.53125 0.078125q-0.265625 0.03125 -0.59375 0.03125zm-0.28125 -6.265625q-0.734375 0 -1.15625 0.5q-0.421875 0.5 -0.484375 1.4375l3.125 0q0 -0.4375 -0.09375 -0.78125q-0.078125 -0.359375 -0.265625 -0.609375q-0.171875 -0.265625 -0.453125 -0.40625q-0.28125 -0.140625 -0.671875 -0.140625zm8.960754 5.203125l-0.046875 0q-0.140625 0.21875 -0.328125 0.421875q-0.1875 0.1875 -0.4375 0.34375q-0.234375 0.140625 -0.546875 0.21875q-0.296875 0.078125 -0.6875 0.078125q-0.578125 0 -1.078125 -0.21875q-0.484375 -0.234375 -0.84375 -0.6875q-0.34375 -0.453125 -0.53125 -1.125q-0.1875 -0.671875 -0.1875 -1.5625q0 -0.90625 0.1875 -1.578125q0.1875 -0.671875 0.53125 -1.125q0.359375 -0.46875 0.84375 -0.6875q0.5 -0.234375 1.078125 -0.234375q0.375 0 0.671875 0.078125q0.3125 0.078125 0.5625 0.21875q0.25 0.140625 0.4375 0.328125q0.1875 0.1875 0.328125 0.390625l0.078125 0q-0.015625 -0.21875 -0.046875 -0.421875q0 -0.15625 -0.015625 -0.328125q-0.015625 -0.1875 -0.015625 -0.28125l0 -2.765625l1.15625 0l0 9.875l-0.9375 0l-0.171875 -0.9375zm-1.8125 0.109375q0.46875 0 0.796875 -0.140625q0.34375 -0.15625 0.546875 -0.453125q0.203125 -0.296875 0.296875 -0.734375q0.109375 -0.453125 0.125 -1.0625l0 -0.25q0 -0.640625 -0.09375 -1.140625q-0.078125 -0.5 -0.28125 -0.84375q-0.203125 -0.34375 -0.546875 -0.515625q-0.34375 -0.171875 -0.859375 -0.171875q-0.859375 0 -1.265625 0.703125q-0.40625 0.6875 -0.40625 1.984375q0 1.3125 0.40625 1.96875q0.40625 0.65625 1.28125 0.65625zm8.465698 -6.265625q0.59375 0 1.078125 0.234375q0.5 0.21875 0.84375 0.671875q0.34375 0.453125 0.53125 1.125q0.203125 0.671875 0.203125 1.5625q0 0.890625 -0.203125 1.578125q-0.1875 0.671875 -0.53125 1.125q-0.34375 0.453125 -0.84375 0.6875q-0.484375 0.234375 -1.078125 0.234375q-0.375 0 -0.6875 -0.078125q-0.296875 -0.078125 -0.546875 -0.21875q-0.234375 -0.140625 -0.421875 -0.3125q-0.1875 -0.1875 -0.328125 -0.390625l-0.078125 0l-0.234375 0.875l-0.84375 0l0 -9.875l1.15625 0l0 2.390625q0 0.21875 -0.015625 0.46875q0 0.25 -0.015625 0.46875q-0.015625 0.25 -0.03125 0.484375l0.0625 0q0.140625 -0.21875 0.328125 -0.40625q0.1875 -0.1875 0.421875 -0.328125q0.25 -0.140625 0.546875 -0.21875q0.3125 -0.078125 0.6875 -0.078125zm-0.21875 0.953125q-0.515625 0 -0.859375 0.171875q-0.328125 0.15625 -0.53125 0.484375q-0.203125 0.328125 -0.296875 0.828125q-0.078125 0.484375 -0.078125 1.15625q0 0.640625 0.078125 1.140625q0.09375 0.5 0.296875 0.84375q0.203125 0.328125 0.546875 0.515625q0.34375 0.171875 0.859375 0.171875q0.859375 0 1.25 -0.6875q0.40625 -0.703125 0.40625 -2.0q0 -1.3125 -0.40625 -1.96875q-0.390625 -0.65625 -1.265625 -0.65625zm8.809448 6.140625l-0.234375 -0.96875l-0.046875 0q-0.21875 0.296875 -0.421875 0.5q-0.203125 0.203125 -0.453125 0.34375q-0.25 0.125 -0.5625 0.1875q-0.296875 0.0625 -0.703125 0.0625q-0.4375 0 -0.8125 -0.125q-0.359375 -0.125 -0.625 -0.375q-0.265625 -0.265625 -0.421875 -0.65625q-0.15625 -0.390625 -0.15625 -0.921875q0 -1.03125 0.734375 -1.59375q0.734375 -0.5625 2.234375 -0.609375l1.171875 -0.046875l0 -0.4375q0 -0.421875 -0.09375 -0.703125q-0.09375 -0.296875 -0.265625 -0.46875q-0.171875 -0.171875 -0.4375 -0.25q-0.25 -0.078125 -0.578125 -0.078125q-0.53125 0 -0.984375 0.15625q-0.453125 0.15625 -0.875 0.359375l-0.40625 -0.859375q0.46875 -0.25 1.046875 -0.421875q0.578125 -0.1875 1.21875 -0.1875q0.640625 0 1.109375 0.125q0.46875 0.125 0.78125 0.421875q0.3125 0.28125 0.453125 0.71875q0.15625 0.4375 0.15625 1.046875l0 4.78125l-0.828125 0zm-2.125 -0.8125q0.390625 0 0.71875 -0.109375q0.34375 -0.125 0.578125 -0.359375q0.234375 -0.25 0.375 -0.625q0.140625 -0.375 0.140625 -0.875l0 -0.625l-0.90625 0.046875q-0.578125 0.015625 -0.96875 0.125q-0.375 0.09375 -0.609375 0.28125q-0.234375 0.171875 -0.34375 0.4375q-0.09375 0.25 -0.09375 0.578125q0 0.578125 0.296875 0.859375q0.3125 0.265625 0.8125 0.265625zm7.933441 0.9375q-0.640625 0 -1.203125 -0.1875q-0.546875 -0.203125 -0.96875 -0.640625q-0.40625 -0.4375 -0.640625 -1.109375q-0.234375 -0.6875 -0.234375 -1.640625q0 -0.984375 0.234375 -1.671875q0.25 -0.703125 0.671875 -1.140625q0.421875 -0.4375 0.984375 -0.625q0.5625 -0.203125 1.21875 -0.203125q0.484375 0 0.953125 0.109375q0.484375 0.109375 0.796875 0.265625l-0.34375 0.96875q-0.140625 -0.0625 -0.328125 -0.109375q-0.171875 -0.0625 -0.359375 -0.109375q-0.1875 -0.0625 -0.375 -0.078125q-0.1875 -0.03125 -0.34375 -0.03125q-1.0 0 -1.46875 0.640625q-0.453125 0.625 -0.453125 1.984375q0 1.328125 0.453125 1.953125q0.46875 0.625 1.40625 0.625q0.515625 0 0.921875 -0.125q0.421875 -0.125 0.765625 -0.28125l0 1.03125q-0.34375 0.1875 -0.734375 0.28125q-0.390625 0.09375 -0.953125 0.09375zm4.575714 -3.71875l0.859375 -1.078125l1.859375 -2.296875l1.34375 0l-2.546875 3.015625l2.71875 3.953125l-1.328125 0l-2.140625 -3.203125l-0.6875 0.53125l0 2.671875l-1.140625 0l0 -9.875l1.140625 0l0 4.53125l-0.109375 1.75l0.03125 0z" fill-rule="nonzero"></path><path fill="#cfe2f3" d="m20.277323 29.287212l0 0c-1.0964966 -5.162155 2.5035229 -10.272375 9.272438 -13.162207c6.768915 -2.8898296 15.519606 -3.0524578 22.538832 -0.41887283l0 0c2.4864235 -3.0014915 7.037304 -5.0738134 12.276093 -5.590131c5.238785 -0.5163164 10.550156 0.58401585 14.32753 2.9681692l0 0c2.1181183 -2.721345 6.277069 -4.549741 11.001045 -4.836378c4.723976 -0.2866373 9.344429 1.0090504 12.221764 3.4272861l0 0c3.826683 -2.8846188 9.915031 -4.099163 15.630577 -3.1180935c5.7155533 0.9810705 10.031738 3.9815454 11.080925 7.703104l0 0c4.688339 0.8192444 8.593613 2.9018707 10.706848 5.709795c2.1132355 2.8079262 2.2271118 6.0656986 0.31222534 8.931614l0 0c4.616638 3.8492374 5.696579 8.9783 2.8368225 13.473116c-2.8597565 4.494812 -9.229584 7.6800804 -16.732368 8.367119c-0.052886963 4.218544 -3.6643295 8.089428 -9.442337 10.120644c-5.778 2.0312157 -12.820305 1.90559 -18.412498 -0.32846832c-2.381981 5.052433 -9.086449 8.76997 -17.216835 9.54649c-8.130386 0.7765198 -16.229156 -1.5271759 -20.797344 -5.9158173c-5.599636 2.1631775 -12.318737 2.786316 -18.641605 1.728859c-6.3228683 -1.057457 -11.716896 -3.7064438 -14.9653015 -7.349392l0 0c-5.722128 0.42896652 -11.254633 -1.4702568 -13.851755 -4.7550964c-2.5971222 -3.2848358 -1.7059956 -7.2560234 2.2311172 -9.942677l0 0c-5.1042852 -1.9245872 -7.7088 -5.7436104 -6.455391 -9.465595c1.2534094 -3.7219887 6.080715 -6.503521 11.964666 -6.894142z" fill-rule="nonzero"></path><path fill="#000000" fill-opacity="0.0" d="m14.654939 45.84591l0 0c2.4087286 0.9082184 5.191373 1.3202095 7.9743204 1.1806526m3.6450634 13.517448c1.1967697 -0.089717865 2.369831 -0.27970505 3.4889336 -0.5650635m30.116302 6.18536c-0.8417282 -0.80864716 -1.5464706 -1.6727524 -2.102211 -2.5776024m40.11784 -1.0532227l0 0c0.43427277 -0.92113113 0.7156372 -1.8691788 0.8394165 -2.8283195m27.014366 -6.963501c0.05630493 -4.491287 -3.925682 -8.603561 -10.235565 -10.570473m24.130974 -11.269289c-1.0218658 1.5293713 -2.5818634 2.886053 -4.557663 3.9636745m-6.460449 -18.605484l0 0c0.17411804 0.61759377 0.2546997 1.2444706 0.2406311 1.8719387m-26.951675 -6.4567623l0 0c-0.95456696 0.7195692 -1.741005 1.5236778 -2.3348236 2.387289m-20.888206 -0.97851086l0 0c-0.5086975 0.65357876 -0.88856506 1.3451777 -1.1308441 2.0588636m-25.473167 0.56315136l0 0c1.4852638 0.5572653 2.859333 1.227992 4.0920258 1.9974489m-35.902885 11.583704l0 0c0.15112495 0.7114792 0.38991165 1.4141865 0.7141247 2.1015453" fill-rule="nonzero"></path><path stroke="#6fa8dc" stroke-width="1.0" stroke-linejoin="round" stroke-linecap="butt" d="m20.277323 29.287212l0 0c-1.0964966 -5.162155 2.5035229 -10.272375 9.272438 -13.162207c6.768915 -2.8898296 15.519606 -3.0524578 22.538832 -0.41887283l0 0c2.4864235 -3.0014915 7.037304 -5.0738134 12.276093 -5.590131c5.238785 -0.5163164 10.550156 0.58401585 14.32753 2.9681692l0 0c2.1181183 -2.721345 6.277069 -4.549741 11.001045 -4.836378c4.723976 -0.2866373 9.344429 1.0090504 12.221764 3.4272861l0 0c3.826683 -2.8846188 9.915031 -4.099163 15.630577 -3.1180935c5.7155533 0.9810705 10.031738 3.9815454 11.080925 7.703104l0 0c4.688339 0.8192444 8.593613 2.9018707 10.706848 5.709795c2.1132355 2.8079262 2.2271118 6.0656986 0.31222534 8.931614l0 0c4.616638 3.8492374 5.696579 8.9783 2.8368225 13.473116c-2.8597565 4.494812 -9.229584 7.6800804 -16.732368 8.367119c-0.052886963 4.218544 -3.6643295 8.089428 -9.442337 10.120644c-5.778 2.0312157 -12.820305 1.90559 -18.412498 -0.32846832c-2.381981 5.052433 -9.086449 8.76997 -17.216835 9.54649c-8.130386 0.7765198 -16.229156 -1.5271759 -20.797344 -5.9158173c-5.599636 2.1631775 -12.318737 2.786316 -18.641605 1.728859c-6.3228683 -1.057457 -11.716896 -3.7064438 -14.9653015 -7.349392l0 0c-5.722128 0.42896652 -11.254633 -1.4702568 -13.851755 -4.7550964c-2.5971222 -3.2848358 -1.7059956 -7.2560234 2.2311172 -9.942677l0 0c-5.1042852 -1.9245872 -7.7088 -5.7436104 -6.455391 -9.465595c1.2534094 -3.7219887 6.080715 -6.503521 11.964666 -6.894142z" fill-rule="nonzero"></path><path stroke="#6fa8dc" stroke-width="1.0" stroke-linejoin="round" stroke-linecap="butt" d="m14.654939 45.84591l0 0c2.4087286 0.9082184 5.191373 1.3202095 7.9743204 1.1806526m3.6450634 13.517448c1.1967697 -0.089717865 2.369831 -0.27970505 3.4889336 -0.5650635m30.116302 6.18536c-0.8417282 -0.80864716 -1.5464706 -1.6727524 -2.102211 -2.5776024m40.11784 -1.0532227l0 0c0.43427277 -0.92113113 0.7156372 -1.8691788 0.8394165 -2.8283195m27.014366 -6.963501c0.05630493 -4.491287 -3.925682 -8.603561 -10.235565 -10.570473m24.130974 -11.269289c-1.0218658 1.5293713 -2.5818634 2.886053 -4.557663 3.9636745m-6.460449 -18.605484l0 0c0.17411804 0.61759377 0.2546997 1.2444706 0.2406311 1.8719387m-26.951675 -6.4567623l0 0c-0.95456696 0.7195692 -1.741005 1.5236778 -2.3348236 2.387289m-20.888206 -0.97851086l0 0c-0.5086975 0.65357876 -0.88856506 1.3451777 -1.1308441 2.0588636m-25.473167 0.56315136l0 0c1.4852638 0.5572653 2.859333 1.227992 4.0920258 1.9974489m-35.902885 11.583704l0 0c0.15112495 0.7114792 0.38991165 1.4141865 0.7141247 2.1015453" fill-rule="nonzero"></path><path fill="#000000" d="m47.83007 34.062134q-0.84375 0 -1.53125 0.328125q-0.671875 0.3125 -1.15625 0.90625q-0.46875 0.59375 -0.734375 1.453125q-0.265625 0.84375 -0.265625 1.90625q0 1.109375 0.234375 1.96875q0.234375 0.84375 0.6875 1.4375q0.46875 0.578125 1.15625 0.890625q0.6875 0.296875 1.609375 0.296875q0.6875 0 1.3125 -0.125q0.625 -0.140625 1.234375 -0.328125l0 1.265625q-0.296875 0.125 -0.609375 0.21875q-0.296875 0.078125 -0.640625 0.140625q-0.328125 0.0625 -0.703125 0.078125q-0.375 0.03125 -0.84375 0.03125q-1.28125 0 -2.21875 -0.421875q-0.9375 -0.421875 -1.546875 -1.1875q-0.609375 -0.78125 -0.90625 -1.859375q-0.296875 -1.09375 -0.296875 -2.421875q0 -1.296875 0.328125 -2.375q0.34375 -1.078125 1.0 -1.84375q0.671875 -0.78125 1.640625 -1.203125q0.984375 -0.4375 2.25 -0.4375q0.84375 0 1.609375 0.171875q0.765625 0.171875 1.375 0.5l-0.609375 1.21875q-0.484375 -0.25 -1.0625 -0.421875q-0.578125 -0.1875 -1.3125 -0.1875zm11.8046875 6.0q0 1.078125 -0.265625 1.90625q-0.265625 0.828125 -0.75 1.40625q-0.484375 0.5625 -1.1875 0.859375q-0.6875 0.296875 -1.5625 0.296875q-0.796875 0 -1.484375 -0.296875q-0.671875 -0.296875 -1.171875 -0.859375q-0.5 -0.578125 -0.78125 -1.40625q-0.265625 -0.828125 -0.265625 -1.90625q0 -1.0625 0.25 -1.875q0.265625 -0.828125 0.75 -1.390625q0.484375 -0.578125 1.1875 -0.859375q0.703125 -0.296875 1.5625 -0.296875q0.8125 0 1.484375 0.296875q0.6875 0.28125 1.171875 0.859375q0.5 0.5625 0.78125 1.390625q0.28125 0.8125 0.28125 1.875zm-6.0 0q0 1.640625 0.53125 2.46875q0.53125 0.8125 1.734375 0.8125q1.203125 0 1.734375 -0.8125q0.53125 -0.828125 0.53125 -2.46875q0 -1.625 -0.546875 -2.4375q-0.53125 -0.8125 -1.734375 -0.8125q-1.203125 0 -1.734375 0.8125q-0.515625 0.8125 -0.515625 2.4375zm13.59375 4.3125l0 -5.53125q0 -1.015625 -0.40625 -1.515625q-0.40625 -0.515625 -1.28125 -0.515625q-0.640625 0 -1.078125 0.203125q-0.421875 0.203125 -0.6875 0.609375q-0.25 0.390625 -0.375 0.96875q-0.109375 0.578125 -0.109375 1.328125l0 4.453125l-1.421875 0l0 -8.578125l1.15625 0l0.203125 1.15625l0.078125 0q0.203125 -0.34375 0.46875 -0.578125q0.265625 -0.25 0.578125 -0.40625q0.328125 -0.171875 0.6875 -0.25q0.359375 -0.078125 0.734375 -0.078125q1.4375 0 2.15625 0.75q0.71875 0.734375 0.71875 2.375l0 5.609375l-1.421875 0zm7.34375 0.15625q-0.78125 0 -1.46875 -0.25q-0.6875 -0.25 -1.203125 -0.78125q-0.5 -0.53125 -0.796875 -1.359375q-0.28125 -0.84375 -0.28125 -2.015625q0 -1.21875 0.296875 -2.078125q0.296875 -0.859375 0.8125 -1.390625q0.515625 -0.53125 1.203125 -0.765625q0.703125 -0.25 1.5 -0.25q0.609375 0 1.1875 0.140625q0.59375 0.125 0.984375 0.3125l-0.421875 1.203125q-0.1875 -0.078125 -0.40625 -0.140625q-0.21875 -0.078125 -0.453125 -0.140625q-0.234375 -0.0625 -0.46875 -0.09375q-0.21875 -0.03125 -0.421875 -0.03125q-1.21875 0 -1.78125 0.78125q-0.5625 0.78125 -0.5625 2.4375q0 1.65625 0.5625 2.421875q0.5625 0.75 1.71875 0.75q0.640625 0 1.140625 -0.140625q0.515625 -0.140625 0.9375 -0.34375l0 1.265625q-0.421875 0.234375 -0.90625 0.34375q-0.46875 0.125 -1.171875 0.125zm7.515625 0q-0.859375 0 -1.578125 -0.28125q-0.703125 -0.296875 -1.21875 -0.84375q-0.5 -0.5625 -0.78125 -1.375q-0.28125 -0.828125 -0.28125 -1.890625q0 -1.0625 0.25 -1.890625q0.265625 -0.84375 0.734375 -1.421875q0.46875 -0.578125 1.109375 -0.875q0.65625 -0.3125 1.453125 -0.3125q0.765625 0 1.375 0.28125q0.625 0.265625 1.046875 0.78125q0.4375 0.5 0.671875 1.203125q0.234375 0.703125 0.234375 1.5625l0 0.890625l-5.40625 0q0.03125 1.5 0.625 2.21875q0.609375 0.703125 1.78125 0.703125q0.40625 0 0.734375 -0.03125q0.34375 -0.046875 0.65625 -0.109375q0.328125 -0.078125 0.625 -0.1875q0.296875 -0.125 0.59375 -0.265625l0 1.265625q-0.3125 0.15625 -0.609375 0.265625q-0.296875 0.109375 -0.625 0.171875q-0.3125 0.078125 -0.65625 0.109375q-0.328125 0.03125 -0.734375 0.03125zm-0.34375 -7.71875q-0.890625 0 -1.421875 0.609375q-0.515625 0.609375 -0.59375 1.78125l3.84375 0q0 -0.53125 -0.109375 -0.96875q-0.109375 -0.453125 -0.328125 -0.765625q-0.21875 -0.3125 -0.5625 -0.484375q-0.34375 -0.171875 -0.828125 -0.171875zm9.390625 7.71875q-0.453125 0 -0.828125 -0.109375q-0.375 -0.09375 -0.6875 -0.265625q-0.296875 -0.171875 -0.53125 -0.390625q-0.21875 -0.234375 -0.40625 -0.484375l-0.09375 0q0.03125 0.265625 0.046875 0.515625q0.015625 0.203125 0.03125 0.421875q0.015625 0.21875 0.015625 0.34375l0 3.65625l-1.421875 0l0 -12.421875l1.15625 0l0.203125 1.15625l0.0625 0q0.1875 -0.28125 0.40625 -0.515625q0.234375 -0.234375 0.53125 -0.40625q0.296875 -0.1875 0.671875 -0.28125q0.375 -0.109375 0.84375 -0.109375q0.734375 0 1.328125 0.28125q0.609375 0.28125 1.03125 0.84375q0.4375 0.546875 0.671875 1.375q0.234375 0.828125 0.234375 1.921875q0 1.109375 -0.234375 1.9375q-0.234375 0.828125 -0.671875 1.390625q-0.421875 0.5625 -1.03125 0.859375q-0.59375 0.28125 -1.328125 0.28125zm-0.265625 -7.71875q-0.59375 0 -1.015625 0.1875q-0.40625 0.171875 -0.65625 0.546875q-0.25 0.359375 -0.375 0.90625q-0.125 0.546875 -0.140625 1.296875l0 0.3125q0 0.796875 0.109375 1.40625q0.109375 0.609375 0.359375 1.03125q0.25 0.421875 0.671875 0.640625q0.421875 0.203125 1.0625 0.203125q1.046875 0 1.546875 -0.84375q0.5 -0.859375 0.5 -2.453125q0 -1.625 -0.5 -2.421875q-0.5 -0.8125 -1.5625 -0.8125zm8.359375 6.546875q0.140625 0 0.3125 -0.015625q0.1875 -0.015625 0.34375 -0.03125q0.171875 -0.03125 0.296875 -0.0625q0.140625 -0.03125 0.21875 -0.046875l0 1.078125q-0.109375 0.046875 -0.265625 0.09375q-0.15625 0.046875 -0.34375 0.078125q-0.1875 0.046875 -0.390625 0.0625q-0.203125 0.015625 -0.390625 0.015625q-0.484375 0 -0.90625 -0.125q-0.40625 -0.125 -0.71875 -0.421875q-0.296875 -0.3125 -0.46875 -0.828125q-0.171875 -0.53125 -0.171875 -1.3125l0 -4.984375l-1.203125 0l0 -0.625l1.203125 -0.609375l0.609375 -1.796875l0.828125 0l0 1.96875l2.15625 0l0 1.0625l-2.15625 0l0 4.984375q0 0.75 0.234375 1.140625q0.25 0.375 0.8125 0.375z" fill-rule="nonzero"></path><path fill="#cfe2f3" d="m32.0 93.33344l0 0c0 -2.9455795 2.3878632 -5.3334427 5.333439 -5.3334427l69.333115 0c1.4145203 0 2.771103 0.56191254 3.7713165 1.5621262c1.0002136 1.0002136 1.5621262 2.3567963 1.5621262 3.7713165l0 21.333115c0 2.9455795 -2.3878632 5.3334427 -5.3334427 5.3334427l-69.333115 0l0 0c-2.9455757 0 -5.333439 -2.3878632 -5.333439 -5.3334427z" fill-rule="nonzero"></path><path stroke="#3d85c6" stroke-width="1.0" stroke-linejoin="round" stroke-linecap="butt" d="m32.0 93.33344l0 0c0 -2.9455795 2.3878632 -5.3334427 5.333439 -5.3334427l69.333115 0c1.4145203 0 2.771103 0.56191254 3.7713165 1.5621262c1.0002136 1.0002136 1.5621262 2.3567963 1.5621262 3.7713165l0 21.333115c0 2.9455795 -2.3878632 5.3334427 -5.3334427 5.3334427l-69.333115 0l0 0c-2.9455757 0 -5.333439 -2.3878632 -5.333439 -5.3334427z" fill-rule="nonzero"></path><path fill="#000000" d="m53.26934 102.70625l-1.546875 0l0 6.09375l-1.15625 0l0 -6.09375l-1.234375 0l0 -0.484375l1.234375 -0.4375l0 -0.609375q0 -0.671875 0.140625 -1.109375q0.140625 -0.453125 0.40625 -0.71875q0.265625 -0.265625 0.65625 -0.375q0.40625 -0.125 0.890625 -0.125q0.375 0 0.6875 0.078125q0.328125 0.078125 0.578125 0.15625l-0.3125 0.90625q-0.1875 -0.078125 -0.421875 -0.125q-0.234375 -0.0625 -0.484375 -0.0625q-0.25 0 -0.4375 0.0625q-0.1875 0.0625 -0.3125 0.21875q-0.109375 0.15625 -0.171875 0.421875q-0.0625 0.25 -0.0625 0.671875l0 0.65625l1.546875 0l0 0.875zm2.5269318 6.09375l-1.15625 0l0 -6.96875l1.15625 0l0 6.96875zm-1.25 -8.859375q0 -0.375 0.1875 -0.546875q0.203125 -0.171875 0.484375 -0.171875q0.140625 0 0.265625 0.046875q0.125 0.03125 0.21875 0.125q0.09375 0.09375 0.140625 0.234375q0.0625 0.125 0.0625 0.3125q0 0.375 -0.203125 0.5625q-0.203125 0.171875 -0.484375 0.171875q-0.28125 0 -0.484375 -0.171875q-0.1875 -0.1875 -0.1875 -0.5625zm4.699173 8.859375l-1.15625 0l0 -9.875l1.15625 0l0 9.875zm5.042923 0.125q-0.703125 0 -1.28125 -0.234375q-0.578125 -0.234375 -1.0 -0.6875q-0.40625 -0.453125 -0.640625 -1.109375q-0.21875 -0.671875 -0.21875 -1.53125q0 -0.859375 0.203125 -1.53125q0.21875 -0.6875 0.59375 -1.15625q0.375 -0.484375 0.90625 -0.71875q0.53125 -0.25 1.171875 -0.25q0.640625 0 1.140625 0.234375q0.5 0.21875 0.84375 0.625q0.34375 0.40625 0.53125 0.984375q0.1875 0.578125 0.1875 1.265625l0 0.71875l-4.390625 0q0.03125 1.234375 0.515625 1.8125q0.484375 0.578125 1.453125 0.578125q0.328125 0 0.59375 -0.03125q0.28125 -0.046875 0.53125 -0.09375q0.265625 -0.0625 0.5 -0.15625q0.25 -0.09375 0.5 -0.203125l0 1.015625q-0.265625 0.125 -0.515625 0.21875q-0.234375 0.09375 -0.5 0.140625q-0.25 0.0625 -0.53125 0.078125q-0.265625 0.03125 -0.59375 0.03125zm-0.28125 -6.265625q-0.734375 0 -1.15625 0.5q-0.421875 0.5 -0.484375 1.4375l3.125 0q0 -0.4375 -0.09375 -0.78125q-0.078125 -0.359375 -0.265625 -0.609375q-0.171875 -0.265625 -0.453125 -0.40625q-0.28125 -0.140625 -0.671875 -0.140625zm15.110443 1.40625q0 1.171875 -0.3125 2.0625q-0.296875 0.890625 -0.875 1.484375q-0.578125 0.59375 -1.421875 0.890625q-0.828125 0.296875 -1.890625 0.296875l-2.328125 0l0 -9.28125l2.578125 0q0.96875 0 1.75 0.296875q0.796875 0.28125 1.34375 0.859375q0.5625 0.578125 0.859375 1.4375q0.296875 0.84375 0.296875 1.953125zm-1.25 0.046875q0 -0.9375 -0.203125 -1.609375q-0.203125 -0.671875 -0.609375 -1.109375q-0.40625 -0.4375 -0.984375 -0.640625q-0.578125 -0.21875 -1.328125 -0.21875l-1.28125 0l0 7.25l1.03125 0q1.671875 0 2.515625 -0.921875q0.859375 -0.9375 0.859375 -2.75zm8.351913 4.6875l-4.8125 0l0 -9.28125l4.8125 0l0 1.046875l-3.640625 0l0 2.859375l3.40625 0l0 1.03125l-3.40625 0l0 3.296875l3.640625 0l0 1.046875zm7.785019 -6.5625q0 0.578125 -0.1875 1.109375q-0.171875 0.53125 -0.578125 0.953125q-0.390625 0.40625 -1.046875 0.65625q-0.65625 0.234375 -1.625 0.234375l-0.953125 0l0 3.609375l-1.171875 0l0 -9.28125l2.296875 0q0.84375 0 1.453125 0.1875q0.625 0.171875 1.015625 0.515625q0.40625 0.34375 0.59375 0.859375q0.203125 0.5 0.203125 1.15625zm-4.390625 1.953125l0.828125 0q0.59375 0 1.03125 -0.09375q0.4375 -0.109375 0.71875 -0.328125q0.296875 -0.234375 0.4375 -0.59375q0.15625 -0.359375 0.15625 -0.875q0 -0.90625 -0.53125 -1.328125q-0.515625 -0.4375 -1.625 -0.4375l-1.015625 0l0 3.65625z" fill-rule="nonzero"></path><path fill="#cfe2f3" d="m32.0 205.33344l0 0c0 -2.945572 2.3878632 -5.333435 5.333439 -5.333435l69.333115 0c1.4145203 0 2.771103 0.56192017 3.7713165 1.5621338c1.0002136 1.0002136 1.5621262 2.3567963 1.5621262 3.7713013l0 21.33313c0 2.945572 -2.3878632 5.333435 -5.3334427 5.333435l-69.333115 0l0 0c-2.9455757 0 -5.333439 -2.3878632 -5.333439 -5.333435z" fill-rule="nonzero"></path><path stroke="#3d85c6" stroke-width="1.0" stroke-linejoin="round" stroke-linecap="butt" d="m32.0 205.33344l0 0c0 -2.945572 2.3878632 -5.333435 5.333439 -5.333435l69.333115 0c1.4145203 0 2.771103 0.56192017 3.7713165 1.5621338c1.0002136 1.0002136 1.5621262 2.3567963 1.5621262 3.7713013l0 21.33313c0 2.945572 -2.3878632 5.333435 -5.3334427 5.333435l-69.333115 0l0 0c-2.9455757 0 -5.333439 -2.3878632 -5.333439 -5.333435z" fill-rule="nonzero"></path><path fill="#000000" d="m58.41056 213.70625q0.171875 0 0.40625 0.015625q0.234375 0.015625 0.390625 0.046875l-0.140625 1.0625q-0.1875 -0.03125 -0.375 -0.046875q-0.1875 -0.03125 -0.34375 -0.03125q-0.40625 0 -0.734375 0.171875q-0.328125 0.15625 -0.578125 0.46875q-0.234375 0.296875 -0.359375 0.71875q-0.125 0.421875 -0.125 0.921875l0 3.765625l-1.15625 0l0 -6.96875l0.9375 0l0.140625 1.28125l0.046875 0q0.15625 -0.28125 0.328125 -0.53125q0.1875 -0.25 0.40625 -0.4375q0.234375 -0.203125 0.515625 -0.3125q0.28125 -0.125 0.640625 -0.125zm5.0513153 7.21875q-0.703125 0 -1.28125 -0.234375q-0.578125 -0.234375 -1.0 -0.6875q-0.40625 -0.453125 -0.640625 -1.109375q-0.21875 -0.671875 -0.21875 -1.53125q0 -0.859375 0.203125 -1.53125q0.21875 -0.6875 0.59375 -1.15625q0.375 -0.484375 0.90625 -0.71875q0.53125 -0.25 1.171875 -0.25q0.640625 0 1.140625 0.234375q0.5 0.21875 0.84375 0.625q0.34375 0.40625 0.53125 0.984375q0.1875 0.578125 0.1875 1.265625l0 0.71875l-4.390625 0q0.03125 1.234375 0.515625 1.8125q0.484375 0.578125 1.453125 0.578125q0.328125 0 0.59375 -0.03125q0.28125 -0.046875 0.53125 -0.09375q0.265625 -0.0625 0.5 -0.15625q0.25 -0.09375 0.5 -0.203125l0 1.015625q-0.265625 0.125 -0.515625 0.21875q-0.234375 0.09375 -0.5 0.140625q-0.25 0.0625 -0.53125 0.078125q-0.265625 0.03125 -0.59375 0.03125zm-0.28125 -6.265625q-0.734375 0 -1.15625 0.5q-0.421875 0.5 -0.484375 1.4375l3.125 0q0 -0.4375 -0.09375 -0.78125q-0.078125 -0.359375 -0.265625 -0.609375q-0.171875 -0.265625 -0.453125 -0.40625q-0.28125 -0.140625 -0.671875 -0.140625zm5.9295044 6.140625l-2.375 -6.96875l1.1875 0l1.265625 3.875q0.078125 0.21875 0.171875 0.546875q0.09375 0.328125 0.1875 0.671875q0.09375 0.34375 0.171875 0.65625q0.078125 0.296875 0.109375 0.453125l0.046875 0q0.03125 -0.15625 0.09375 -0.453125q0.078125 -0.3125 0.171875 -0.65625q0.109375 -0.34375 0.203125 -0.671875q0.09375 -0.328125 0.15625 -0.546875l1.265625 -3.875l1.203125 0l-2.390625 6.96875l-1.46875 0zm6.2748566 0l-1.15625 0l0 -6.96875l1.15625 0l0 6.96875zm-1.25 -8.859375q0 -0.375 0.1875 -0.546875q0.203125 -0.171875 0.484375 -0.171875q0.140625 0 0.265625 0.046875q0.125 0.03125 0.21875 0.125q0.09375 0.09375 0.140625 0.234375q0.0625 0.125 0.0625 0.3125q0 0.375 -0.203125 0.5625q-0.203125 0.171875 -0.484375 0.171875q-0.28125 0 -0.484375 -0.171875q-0.1875 -0.1875 -0.1875 -0.5625zm7.714798 6.953125q0 0.5 -0.1875 0.890625q-0.1875 0.375 -0.53125 0.640625q-0.34375 0.25 -0.84375 0.375q-0.484375 0.125 -1.09375 0.125q-0.6875 0 -1.1875 -0.109375q-0.484375 -0.109375 -0.859375 -0.328125l0 -1.046875q0.1875 0.09375 0.421875 0.203125q0.25 0.09375 0.515625 0.171875q0.265625 0.0625 0.546875 0.125q0.28125 0.046875 0.5625 0.046875q0.421875 0 0.703125 -0.0625q0.296875 -0.078125 0.46875 -0.203125q0.1875 -0.140625 0.265625 -0.328125q0.078125 -0.1875 0.078125 -0.421875q0 -0.1875 -0.0625 -0.34375q-0.0625 -0.171875 -0.234375 -0.3125q-0.15625 -0.15625 -0.453125 -0.3125q-0.296875 -0.171875 -0.75 -0.359375q-0.453125 -0.203125 -0.828125 -0.390625q-0.359375 -0.1875 -0.609375 -0.421875q-0.25 -0.234375 -0.390625 -0.546875q-0.140625 -0.3125 -0.140625 -0.734375q0 -0.4375 0.171875 -0.78125q0.171875 -0.359375 0.484375 -0.59375q0.328125 -0.234375 0.765625 -0.34375q0.453125 -0.125 1.0 -0.125q0.609375 0 1.125 0.140625q0.515625 0.125 0.96875 0.34375l-0.40625 0.921875q-0.40625 -0.171875 -0.84375 -0.3125q-0.4375 -0.140625 -0.890625 -0.140625q-0.640625 0 -0.953125 0.21875q-0.3125 0.203125 -0.3125 0.609375q0 0.21875 0.078125 0.390625q0.078125 0.15625 0.25 0.3125q0.171875 0.140625 0.46875 0.296875q0.296875 0.140625 0.75 0.3125q0.453125 0.203125 0.8125 0.390625q0.359375 0.1875 0.609375 0.421875q0.265625 0.234375 0.390625 0.546875q0.140625 0.296875 0.140625 0.734375zm4.5914 2.03125q-0.703125 0 -1.28125 -0.234375q-0.578125 -0.234375 -1.0 -0.6875q-0.40625 -0.453125 -0.640625 -1.109375q-0.21875 -0.671875 -0.21875 -1.53125q0 -0.859375 0.203125 -1.53125q0.21875 -0.6875 0.59375 -1.15625q0.375 -0.484375 0.90625 -0.71875q0.53125 -0.25 1.171875 -0.25q0.640625 0 1.140625 0.234375q0.5 0.21875 0.84375 0.625q0.34375 0.40625 0.53125 0.984375q0.1875 0.578125 0.1875 1.265625l0 0.71875l-4.390625 0q0.03125 1.234375 0.515625 1.8125q0.484375 0.578125 1.453125 0.578125q0.328125 0 0.59375 -0.03125q0.28125 -0.046875 0.53125 -0.09375q0.265625 -0.0625 0.5 -0.15625q0.25 -0.09375 0.5 -0.203125l0 1.015625q-0.265625 0.125 -0.515625 0.21875q-0.234375 0.09375 -0.5 0.140625q-0.25 0.0625 -0.53125 0.078125q-0.265625 0.03125 -0.59375 0.03125zm-0.28125 -6.265625q-0.734375 0 -1.15625 0.5q-0.421875 0.5 -0.484375 1.4375l3.125 0q0 -0.4375 -0.09375 -0.78125q-0.078125 -0.359375 -0.265625 -0.609375q-0.171875 -0.265625 -0.453125 -0.40625q-0.28125 -0.140625 -0.671875 -0.140625z" fill-rule="nonzero"></path><path fill="#d9ead3" d="m232.0 173.33344l0 0c0 -2.945572 2.3878632 -5.333435 5.333435 -5.333435l69.33313 0c1.4145203 0 2.7710876 0.56192017 3.7713013 1.5621338c1.0002136 1.0002136 1.5621338 2.3567963 1.5621338 3.7713013l0 21.33313c0 2.945572 -2.387848 5.333435 -5.333435 5.333435l-69.33313 0l0 0c-2.945572 0 -5.333435 -2.3878632 -5.333435 -5.333435z" fill-rule="nonzero"></path><path stroke="#6aa84f" stroke-width="1.0" stroke-linejoin="round" stroke-linecap="butt" d="m232.0 173.33344l0 0c0 -2.945572 2.3878632 -5.333435 5.333435 -5.333435l69.33313 0c1.4145203 0 2.7710876 0.56192017 3.7713013 1.5621338c1.0002136 1.0002136 1.5621338 2.3567963 1.5621338 3.7713013l0 21.33313c0 2.945572 -2.387848 5.333435 -5.333435 5.333435l-69.33313 0l0 0c-2.945572 0 -5.333435 -2.3878632 -5.333435 -5.333435z" fill-rule="nonzero"></path><path fill="#000000" d="m257.5955 188.8l-0.234375 -0.96875l-0.046875 0q-0.21875 0.296875 -0.421875 0.5q-0.203125 0.203125 -0.453125 0.34375q-0.25 0.125 -0.5625 0.1875q-0.296875 0.0625 -0.703125 0.0625q-0.4375 0 -0.8125 -0.125q-0.359375 -0.125 -0.625 -0.375q-0.265625 -0.265625 -0.421875 -0.65625q-0.15625 -0.390625 -0.15625 -0.921875q0 -1.03125 0.734375 -1.59375q0.734375 -0.5625 2.234375 -0.609375l1.171875 -0.046875l0 -0.4375q0 -0.421875 -0.09375 -0.703125q-0.09375 -0.296875 -0.265625 -0.46875q-0.171875 -0.171875 -0.4375 -0.25q-0.25 -0.078125 -0.578125 -0.078125q-0.53125 0 -0.984375 0.15625q-0.453125 0.15625 -0.875 0.359375l-0.40625 -0.859375q0.46875 -0.25 1.046875 -0.421875q0.578125 -0.1875 1.21875 -0.1875q0.640625 0 1.109375 0.125q0.46875 0.125 0.78125 0.421875q0.3125 0.28125 0.453125 0.71875q0.15625 0.4375 0.15625 1.046875l0 4.78125l-0.828125 0zm-2.125 -0.8125q0.390625 0 0.71875 -0.109375q0.34375 -0.125 0.578125 -0.359375q0.234375 -0.25 0.375 -0.625q0.140625 -0.375 0.140625 -0.875l0 -0.625l-0.90625 0.046875q-0.578125 0.015625 -0.96875 0.125q-0.375 0.09375 -0.609375 0.28125q-0.234375 0.171875 -0.34375 0.4375q-0.09375 0.25 -0.09375 0.578125q0 0.578125 0.296875 0.859375q0.3125 0.265625 0.8125 0.265625zm7.933441 0.9375q-0.640625 0 -1.203125 -0.1875q-0.546875 -0.203125 -0.96875 -0.640625q-0.40625 -0.4375 -0.640625 -1.109375q-0.234375 -0.6875 -0.234375 -1.640625q0 -0.984375 0.234375 -1.671875q0.25 -0.703125 0.671875 -1.140625q0.421875 -0.4375 0.984375 -0.625q0.5625 -0.203125 1.21875 -0.203125q0.484375 0 0.953125 0.109375q0.484375 0.109375 0.796875 0.265625l-0.34375 0.96875q-0.140625 -0.0625 -0.328125 -0.109375q-0.171875 -0.0625 -0.359375 -0.109375q-0.1875 -0.0625 -0.375 -0.078125q-0.1875 -0.03125 -0.34375 -0.03125q-1.0 0 -1.46875 0.640625q-0.453125 0.625 -0.453125 1.984375q0 1.328125 0.453125 1.953125q0.46875 0.625 1.40625 0.625q0.515625 0 0.921875 -0.125q0.421875 -0.125 0.765625 -0.28125l0 1.03125q-0.34375 0.1875 -0.734375 0.28125q-0.390625 0.09375 -0.953125 0.09375zm6.169464 0q-0.640625 0 -1.203125 -0.1875q-0.546875 -0.203125 -0.96875 -0.640625q-0.40625 -0.4375 -0.640625 -1.109375q-0.234375 -0.6875 -0.234375 -1.640625q0 -0.984375 0.234375 -1.671875q0.25 -0.703125 0.671875 -1.140625q0.421875 -0.4375 0.984375 -0.625q0.5625 -0.203125 1.21875 -0.203125q0.484375 0 0.953125 0.109375q0.484375 0.109375 0.796875 0.265625l-0.34375 0.96875q-0.140625 -0.0625 -0.328125 -0.109375q-0.171875 -0.0625 -0.359375 -0.109375q-0.1875 -0.0625 -0.375 -0.078125q-0.1875 -0.03125 -0.34375 -0.03125q-1.0 0 -1.46875 0.640625q-0.453125 0.625 -0.453125 1.984375q0 1.328125 0.453125 1.953125q0.46875 0.625 1.40625 0.625q0.515625 0 0.921875 -0.125q0.421875 -0.125 0.765625 -0.28125l0 1.03125q-0.34375 0.1875 -0.734375 0.28125q-0.390625 0.09375 -0.953125 0.09375zm6.263214 0q-0.703125 0 -1.28125 -0.234375q-0.578125 -0.234375 -1.0 -0.6875q-0.40625 -0.453125 -0.640625 -1.109375q-0.21875 -0.671875 -0.21875 -1.53125q0 -0.859375 0.203125 -1.53125q0.21875 -0.6875 0.59375 -1.15625q0.375 -0.484375 0.90625 -0.71875q0.53125 -0.25 1.171875 -0.25q0.640625 0 1.140625 0.234375q0.5 0.21875 0.84375 0.625q0.34375 0.40625 0.53125 0.984375q0.1875 0.578125 0.1875 1.265625l0 0.71875l-4.390625 0q0.03125 1.234375 0.515625 1.8125q0.484375 0.578125 1.453125 0.578125q0.328125 0 0.59375 -0.03125q0.28125 -0.046875 0.53125 -0.09375q0.265625 -0.0625 0.5 -0.15625q0.25 -0.09375 0.5 -0.203125l0 1.015625q-0.265625 0.125 -0.515625 0.21875q-0.234375 0.09375 -0.5 0.140625q-0.25 0.0625 -0.53125 0.078125q-0.265625 0.03125 -0.59375 0.03125zm-0.28125 -6.265625q-0.734375 0 -1.15625 0.5q-0.421875 0.5 -0.484375 1.4375l3.125 0q0 -0.4375 -0.09375 -0.78125q-0.078125 -0.359375 -0.265625 -0.609375q-0.171875 -0.265625 -0.453125 -0.40625q-0.28125 -0.140625 -0.671875 -0.140625zm7.8045044 6.265625q-0.375 0 -0.6875 -0.078125q-0.296875 -0.078125 -0.546875 -0.21875q-0.234375 -0.140625 -0.421875 -0.3125q-0.1875 -0.1875 -0.328125 -0.390625l-0.078125 0q0.015625 0.203125 0.03125 0.40625q0.015625 0.15625 0.03125 0.34375q0.015625 0.171875 0.015625 0.265625l0 2.984375l-1.15625 0l0 -10.09375l0.9375 0l0.15625 0.9375l0.0625 0q0.140625 -0.21875 0.328125 -0.40625q0.1875 -0.203125 0.421875 -0.34375q0.25 -0.140625 0.546875 -0.21875q0.3125 -0.09375 0.6875 -0.09375q0.59375 0 1.078125 0.234375q0.5 0.21875 0.84375 0.671875q0.34375 0.453125 0.53125 1.125q0.203125 0.671875 0.203125 1.5625q0 0.890625 -0.203125 1.578125q-0.1875 0.671875 -0.53125 1.125q-0.34375 0.453125 -0.84375 0.6875q-0.484375 0.234375 -1.078125 0.234375zm-0.21875 -6.265625q-0.484375 0 -0.828125 0.15625q-0.328125 0.140625 -0.53125 0.4375q-0.203125 0.296875 -0.3125 0.75q-0.09375 0.4375 -0.09375 1.03125l0 0.265625q0 0.640625 0.078125 1.140625q0.09375 0.5 0.296875 0.84375q0.203125 0.328125 0.546875 0.515625q0.34375 0.171875 0.859375 0.171875q0.859375 0 1.25 -0.6875q0.40625 -0.703125 0.40625 -2.0q0 -1.3125 -0.40625 -1.96875q-0.390625 -0.65625 -1.265625 -0.65625zm6.9969482 5.328125q0.109375 0 0.25 -0.015625q0.140625 -0.015625 0.265625 -0.03125q0.140625 -0.015625 0.25 -0.046875q0.109375 -0.03125 0.171875 -0.046875l0 0.875q-0.078125 0.046875 -0.203125 0.078125q-0.125 0.03125 -0.28125 0.0625q-0.15625 0.03125 -0.328125 0.046875q-0.15625 0.015625 -0.3125 0.015625q-0.390625 0 -0.734375 -0.109375q-0.328125 -0.09375 -0.578125 -0.34375q-0.25 -0.25 -0.390625 -0.671875q-0.140625 -0.421875 -0.140625 -1.0625l0 -4.03125l-0.984375 0l0 -0.515625l0.984375 -0.5l0.5 -1.453125l0.671875 0l0 1.59375l1.75 0l0 0.875l-1.75 0l0 4.03125q0 0.625 0.1875 0.9375q0.203125 0.3125 0.671875 0.3125z" fill-rule="nonzero"></path><path fill="#d9ead3" d="m232.0 125.33344l0 0c0 -2.9455795 2.3878632 -5.3334427 5.333435 -5.3334427l69.33313 0c1.4145203 0 2.7710876 0.56191254 3.7713013 1.5621262c1.0002136 1.0002136 1.5621338 2.3567963 1.5621338 3.7713165l0 21.333122c0 2.945572 -2.387848 5.333435 -5.333435 5.333435l-69.33313 0l0 0c-2.945572 0 -5.333435 -2.3878632 -5.333435 -5.333435z" fill-rule="nonzero"></path><path stroke="#6aa84f" stroke-width="1.0" stroke-linejoin="round" stroke-linecap="butt" d="m232.0 125.33344l0 0c0 -2.9455795 2.3878632 -5.3334427 5.333435 -5.3334427l69.33313 0c1.4145203 0 2.7710876 0.56191254 3.7713013 1.5621262c1.0002136 1.0002136 1.5621338 2.3567963 1.5621338 3.7713165l0 21.333122c0 2.945572 -2.387848 5.333435 -5.333435 5.333435l-69.33313 0l0 0c-2.945572 0 -5.333435 -2.3878632 -5.333435 -5.333435z" fill-rule="nonzero"></path><path fill="#000000" d="m255.91075 139.8625l-0.046875 0q-0.140625 0.21875 -0.328125 0.421875q-0.1875 0.1875 -0.4375 0.34375q-0.234375 0.140625 -0.546875 0.21875q-0.296875 0.078125 -0.6875 0.078125q-0.578125 0 -1.078125 -0.21875q-0.484375 -0.234375 -0.84375 -0.6875q-0.34375 -0.453125 -0.53125 -1.125q-0.1875 -0.671875 -0.1875 -1.5625q0 -0.90625 0.1875 -1.578125q0.1875 -0.671875 0.53125 -1.125q0.359375 -0.46875 0.84375 -0.6875q0.5 -0.234375 1.078125 -0.234375q0.375 0 0.671875 0.078125q0.3125 0.078125 0.5625 0.21875q0.25 0.140625 0.4375 0.328125q0.1875 0.1875 0.328125 0.390625l0.078125 0q-0.015625 -0.21875 -0.046875 -0.421875q0 -0.15625 -0.015625 -0.328125q-0.015625 -0.1875 -0.015625 -0.28125l0 -2.765625l1.1562347 0l0 9.875l-0.9375 0l-0.17185974 -0.9375zm-1.8125 0.109375q0.46875 0 0.796875 -0.140625q0.34375 -0.15625 0.546875 -0.453125q0.203125 -0.296875 0.296875 -0.734375q0.109375 -0.453125 0.125 -1.0625l0 -0.25q0 -0.640625 -0.09375 -1.140625q-0.078125 -0.5 -0.28125 -0.84375q-0.203125 -0.34375 -0.546875 -0.515625q-0.34375 -0.171875 -0.859375 -0.171875q-0.859375 0 -1.265625 0.703125q-0.40625 0.6875 -0.40625 1.984375q0 1.3125 0.40625 1.96875q0.40625 0.65625 1.28125 0.65625zm8.075058 0.953125q-0.703125 0 -1.28125 -0.234375q-0.578125 -0.234375 -1.0 -0.6875q-0.40625 -0.453125 -0.640625 -1.109375q-0.21875 -0.671875 -0.21875 -1.53125q0 -0.859375 0.203125 -1.53125q0.21875 -0.6875 0.59375 -1.15625q0.375 -0.484375 0.90625 -0.71875q0.53125 -0.25 1.171875 -0.25q0.640625 0 1.140625 0.234375q0.5 0.21875 0.84375 0.625q0.34375 0.40625 0.53125 0.984375q0.1875 0.578125 0.1875 1.265625l0 0.71875l-4.390625 0q0.03125 1.234375 0.515625 1.8125q0.484375 0.578125 1.453125 0.578125q0.328125 0 0.59375 -0.03125q0.28125 -0.046875 0.53125 -0.09375q0.265625 -0.0625 0.5 -0.15625q0.25 -0.09375 0.5 -0.203125l0 1.015625q-0.265625 0.125 -0.515625 0.21875q-0.234375 0.09375 -0.5 0.140625q-0.25 0.0625 -0.53125 0.078125q-0.265625 0.03125 -0.59375 0.03125zm-0.28125 -6.265625q-0.734375 0 -1.15625 0.5q-0.421875 0.5 -0.484375 1.4375l3.125 0q0 -0.4375 -0.09375 -0.78125q-0.078125 -0.359375 -0.265625 -0.609375q-0.171875 -0.265625 -0.453125 -0.40625q-0.28125 -0.140625 -0.671875 -0.140625zm7.3201294 6.265625q-0.640625 0 -1.203125 -0.1875q-0.546875 -0.203125 -0.96875 -0.640625q-0.40625 -0.4375 -0.640625 -1.109375q-0.234375 -0.6875 -0.234375 -1.640625q0 -0.984375 0.234375 -1.671875q0.25 -0.703125 0.671875 -1.140625q0.421875 -0.4375 0.984375 -0.625q0.5625 -0.203125 1.21875 -0.203125q0.484375 0 0.953125 0.109375q0.484375 0.109375 0.796875 0.265625l-0.34375 0.96875q-0.140625 -0.0625 -0.328125 -0.109375q-0.171875 -0.0625 -0.359375 -0.109375q-0.1875 -0.0625 -0.375 -0.078125q-0.1875 -0.03125 -0.34375 -0.03125q-1.0 0 -1.46875 0.640625q-0.453125 0.625 -0.453125 1.984375q0 1.328125 0.453125 1.953125q0.46875 0.625 1.40625 0.625q0.515625 0 0.921875 -0.125q0.421875 -0.125 0.765625 -0.28125l0 1.03125q-0.34375 0.1875 -0.734375 0.28125q-0.390625 0.09375 -0.953125 0.09375zm4.669464 -0.125l-1.15625 0l0 -9.875l1.15625 0l0 9.875zm3.4491882 0l-1.15625 0l0 -6.96875l1.15625 0l0 6.96875zm-1.25 -8.859375q0 -0.375 0.1875 -0.546875q0.203125 -0.171875 0.484375 -0.171875q0.140625 0 0.265625 0.046875q0.125 0.03125 0.21875 0.125q0.09375 0.09375 0.140625 0.234375q0.0625 0.125 0.0625 0.3125q0 0.375 -0.203125 0.5625q-0.203125 0.171875 -0.484375 0.171875q-0.28125 0 -0.484375 -0.171875q-0.1875 -0.1875 -0.1875 -0.5625zm7.8866577 8.859375l0 -4.484375q0 -0.828125 -0.328125 -1.234375q-0.328125 -0.421875 -1.046875 -0.421875q-0.515625 0 -0.859375 0.171875q-0.34375 0.15625 -0.5625 0.484375q-0.21875 0.328125 -0.3125 0.796875q-0.078125 0.46875 -0.078125 1.078125l0 3.609375l-1.15625 0l0 -6.96875l0.9375 0l0.15625 0.9375l0.0625 0q0.171875 -0.265625 0.390625 -0.46875q0.21875 -0.203125 0.46875 -0.328125q0.265625 -0.140625 0.546875 -0.203125q0.296875 -0.0625 0.609375 -0.0625q1.15625 0 1.734375 0.609375q0.59375 0.59375 0.59375 1.9375l0 4.546875l-1.15625 0zm6.2547607 0.125q-0.703125 0 -1.28125 -0.234375q-0.578125 -0.234375 -1.0 -0.6875q-0.40625 -0.453125 -0.640625 -1.109375q-0.21875 -0.671875 -0.21875 -1.53125q0 -0.859375 0.203125 -1.53125q0.21875 -0.6875 0.59375 -1.15625q0.375 -0.484375 0.90625 -0.71875q0.53125 -0.25 1.171875 -0.25q0.640625 0 1.140625 0.234375q0.5 0.21875 0.84375 0.625q0.34375 0.40625 0.53125 0.984375q0.1875 0.578125 0.1875 1.265625l0 0.71875l-4.390625 0q0.03125 1.234375 0.515625 1.8125q0.484375 0.578125 1.453125 0.578125q0.328125 0 0.59375 -0.03125q0.28125 -0.046875 0.53125 -0.09375q0.265625 -0.0625 0.5 -0.15625q0.25 -0.09375 0.5 -0.203125l0 1.015625q-0.265625 0.125 -0.515625 0.21875q-0.234375 0.09375 -0.5 0.140625q-0.25 0.0625 -0.53125 0.078125q-0.265625 0.03125 -0.59375 0.03125zm-0.28125 -6.265625q-0.734375 0 -1.15625 0.5q-0.421875 0.5 -0.484375 1.4375l3.125 0q0 -0.4375 -0.09375 -0.78125q-0.078125 -0.359375 -0.265625 -0.609375q-0.171875 -0.265625 -0.453125 -0.40625q-0.28125 -0.140625 -0.671875 -0.140625z" fill-rule="nonzero"></path><path fill="#000000" fill-opacity="0.0" d="m336.0 224.0l104.0 0l0 32.0l-104.0 0z" fill-rule="nonzero"></path><path fill="#000000" d="m350.95312 246.14l-2.5625 0l3.75 -10.0l-3.046875 0l0.796875 -2.140625l8.640625 0l-0.796875 2.140625l-3.03125 0l-3.75 10.0zm8.744537 -4.65625q-0.53125 1.390625 -0.40625 2.09375q0.140625 0.6875 1.015625 0.6875q0.875 0 1.53125 -0.703125q0.65625 -0.703125 1.171875 -2.078125q0.515625 -1.390625 0.375 -2.0625q-0.125 -0.6875 -1.015625 -0.6875q-0.875 0 -1.515625 0.6875q-0.640625 0.671875 -1.15625 2.0625zm5.890625 0q-0.4375 1.15625 -1.078125 2.0625q-0.625 0.890625 -1.40625 1.515625q-0.78125 0.609375 -1.703125 0.9375q-0.90625 0.3125 -1.890625 0.3125q-0.921875 0 -1.578125 -0.3125q-0.65625 -0.328125 -0.984375 -0.9375q-0.3125 -0.625 -0.296875 -1.515625q0.015625 -0.90625 0.453125 -2.0625q0.4375 -1.15625 1.0625 -2.046875q0.640625 -0.90625 1.421875 -1.515625q0.78125 -0.609375 1.6875 -0.921875q0.90625 -0.3125 1.890625 -0.3125q0.921875 0 1.578125 0.3125q0.65625 0.3125 0.984375 0.921875q0.34375 0.609375 0.3125 1.515625q-0.015625 0.890625 -0.453125 2.046875zm9.757904 4.65625l-2.5625 0l3.75 -10.0l-3.046875 0l0.796875 -2.140625l8.640625 0l-0.796875 2.140625l-3.03125 0l-3.75 10.0zm14.057037 -10.171875q-0.75 0 -1.421875 0.296875q-0.671875 0.28125 -1.265625 0.8125q-0.578125 0.53125 -1.0625 1.3125q-0.484375 0.765625 -0.84375 1.71875q-0.359375 0.96875 -0.46875 1.734375q-0.109375 0.75 0.0625 1.265625q0.171875 0.515625 0.640625 0.796875q0.484375 0.265625 1.28125 0.265625q0.734375 0 1.546875 -0.171875q0.8125 -0.171875 1.796875 -0.46875l-0.8125 2.15625q-0.46875 0.15625 -0.90625 0.28125q-0.421875 0.109375 -0.859375 0.1875q-0.4375 0.078125 -0.875 0.109375q-0.4375 0.046875 -0.9375 0.046875q-1.40625 0 -2.265625 -0.453125q-0.84375 -0.453125 -1.21875 -1.265625q-0.359375 -0.8125 -0.265625 -1.953125q0.109375 -1.15625 0.625 -2.546875q0.515625 -1.375 1.328125 -2.53125q0.8125 -1.15625 1.828125 -1.984375q1.03125 -0.828125 2.265625 -1.28125q1.25 -0.46875 2.640625 -0.46875q0.90625 0 1.71875 0.234375q0.828125 0.21875 1.5 0.625l-1.609375 2.09375q-0.5625 -0.328125 -1.171875 -0.5625q-0.59375 -0.25 -1.25 -0.25zm8.416595 2.421875q0.78125 0 1.359375 0.25q0.578125 0.234375 0.890625 0.703125q0.328125 0.453125 0.359375 1.15625q0.03125 0.6875 -0.296875 1.578125q-0.375 0.984375 -0.984375 1.78125q-0.609375 0.78125 -1.40625 1.328125q-0.796875 0.53125 -1.796875 0.828125q-0.984375 0.296875 -2.140625 0.296875q-0.453125 0 -0.890625 -0.046875q-0.421875 -0.046875 -0.8125 -0.125q-0.375 -0.078125 -0.703125 -0.203125q-0.3125 -0.125 -0.546875 -0.28125l0.828125 -2.21875q0.21875 0.15625 0.546875 0.3125q0.328125 0.140625 0.703125 0.25q0.375 0.09375 0.765625 0.15625q0.390625 0.0625 0.765625 0.0625q1.109375 0 1.859375 -0.453125q0.75 -0.46875 1.125 -1.46875q0.34375 -0.890625 -0.046875 -1.359375q-0.390625 -0.46875 -1.578125 -0.46875q-0.21875 0 -0.484375 0.03125q-0.25 0.015625 -0.5 0.0625q-0.25 0.03125 -0.484375 0.078125q-0.21875 0.046875 -0.40625 0.09375l-0.8125 -0.546875l2.765625 -6.1875l6.40625 0l-0.8125 2.171875l-4.171875 0l-1.09375 2.390625q0.28125 -0.0625 0.65625 -0.109375q0.375 -0.0625 0.9375 -0.0625zm10.497131 7.75l-8.140625 0l0.671875 -1.78125l4.0 -3.078125q0.765625 -0.59375 1.375 -1.078125q0.625 -0.484375 1.125 -0.953125q0.5 -0.46875 0.84375 -0.9375q0.359375 -0.484375 0.5625 -1.046875q0.234375 -0.609375 -0.015625 -0.953125q-0.234375 -0.34375 -0.859375 -0.34375q-0.65625 0 -1.390625 0.328125q-0.734375 0.328125 -1.609375 0.921875l-0.78125 -1.65625q0.5 -0.34375 1.015625 -0.640625q0.53125 -0.3125 1.109375 -0.546875q0.578125 -0.25 1.234375 -0.390625q0.65625 -0.15625 1.375 -0.15625q0.875 0 1.46875 0.25q0.609375 0.234375 0.921875 0.6875q0.328125 0.4375 0.34375 1.078125q0.03125 0.625 -0.265625 1.40625q-0.265625 0.71875 -0.765625 1.375q-0.484375 0.640625 -1.15625 1.265625q-0.65625 0.625 -1.46875 1.25q-0.796875 0.609375 -1.671875 1.25l-2.015625 1.46875l-0.046875 0.125l4.953125 0l-0.8125 2.15625zm2.1377563 -1.1875q0.140625 -0.390625 0.359375 -0.65625q0.21875 -0.265625 0.46875 -0.4375q0.265625 -0.171875 0.546875 -0.234375q0.296875 -0.078125 0.609375 -0.078125q0.28125 0 0.515625 0.078125q0.25 0.0625 0.375 0.234375q0.140625 0.171875 0.15625 0.4375q0.015625 0.265625 -0.125 0.65625q-0.140625 0.375 -0.359375 0.640625q-0.21875 0.265625 -0.484375 0.4375q-0.265625 0.171875 -0.5625 0.25q-0.28125 0.078125 -0.5625 0.078125q-0.3125 0 -0.5625 -0.078125q-0.234375 -0.078125 -0.359375 -0.25q-0.125 -0.171875 -0.140625 -0.4375q-0.015625 -0.265625 0.125 -0.640625zm4.941223 0q0.140625 -0.390625 0.359375 -0.65625q0.21875 -0.265625 0.46875 -0.4375q0.265625 -0.171875 0.546875 -0.234375q0.296875 -0.078125 0.609375 -0.078125q0.28125 0 0.515625 0.078125q0.25 0.0625 0.375 0.234375q0.140625 0.171875 0.15625 0.4375q0.015625 0.265625 -0.125 0.65625q-0.140625 0.375 -0.359375 0.640625q-0.21875 0.265625 -0.484375 0.4375q-0.265625 0.171875 -0.5625 0.25q-0.28125 0.078125 -0.5625 0.078125q-0.3125 0 -0.5625 -0.078125q-0.234375 -0.078125 -0.359375 -0.25q-0.125 -0.171875 -0.140625 -0.4375q-0.015625 -0.265625 0.125 -0.640625zm4.941223 0q0.140625 -0.390625 0.359375 -0.65625q0.21875 -0.265625 0.46875 -0.4375q0.265625 -0.171875 0.546875 -0.234375q0.296875 -0.078125 0.609375 -0.078125q0.28125 0 0.515625 0.078125q0.25 0.0625 0.375 0.234375q0.140625 0.171875 0.15625 0.4375q0.015625 0.265625 -0.125 0.65625q-0.140625 0.375 -0.359375 0.640625q-0.21875 0.265625 -0.484375 0.4375q-0.265625 0.171875 -0.5625 0.25q-0.28125 0.078125 -0.5625 0.078125q-0.3125 0 -0.5625 -0.078125q-0.234375 -0.078125 -0.359375 -0.25q-0.125 -0.171875 -0.140625 -0.4375q-0.015625 -0.265625 0.125 -0.640625z" fill-rule="nonzero"></path><path fill="#000000" fill-opacity="0.0" d="m312.0 184.0c6.0 0 9.0 0.01574707 12.0 0.03149414c3.0 0.01574707 6.0 0.03149414 12.0 0.03149414" fill-rule="nonzero"></path><path stroke="#000000" stroke-width="2.0" stroke-linejoin="round" stroke-linecap="butt" d="m312.0 184.0c6.0 0 9.0 0.01574707 12.0 0.03149414l3.0517578E-5 0" fill-rule="evenodd"></path><path fill="#000000" stroke="#000000" stroke-width="2.0" stroke-linecap="butt" d="m323.99136 187.33495l9.084839 -3.2796326l-9.067505 -3.3272705z" fill-rule="evenodd"></path><path fill="#000000" fill-opacity="0.0" d="m312.0 136.0c6.0 0 9.0 0.01574707 12.0 0.03149414c3.0 0.01574707 6.0 0.03149414 12.0 0.03149414" fill-rule="nonzero"></path><path stroke="#000000" stroke-width="2.0" stroke-linejoin="round" stroke-linecap="butt" d="m312.0 136.0c6.0 0 9.0 0.01574707 12.0 0.03149414l3.0517578E-5 0" fill-rule="evenodd"></path><path fill="#000000" stroke="#000000" stroke-width="2.0" stroke-linecap="butt" d="m323.99136 139.33495l9.084839 -3.2796326l-9.067505 -3.3272705z" fill-rule="evenodd"></path><path fill="#000000" fill-opacity="0.0" d="m200.0 160.0c8.0 0 12.0 -6.0 16.0 -12.0c4.0 -6.0 8.0 -12.0 16.0 -12.0" fill-rule="nonzero"></path><path stroke="#000000" stroke-width="2.0" stroke-linejoin="round" stroke-linecap="butt" d="m200.0 160.0c8.0 0 12.0 -6.0 16.0 -12.0c4.0 -6.0 8.0 -12.0 16.0 -12.0" fill-rule="nonzero"></path><path fill="#000000" fill-opacity="0.0" d="m200.0 160.0c8.0 0 12.0 6.0 16.0 12.0c4.0 6.0 8.0 12.0 16.0 12.0" fill-rule="nonzero"></path><path stroke="#000000" stroke-width="2.0" stroke-linejoin="round" stroke-linecap="butt" d="m200.0 160.0c8.0 0 12.0 6.0 16.0 12.0c4.0 6.0 8.0 12.0 16.0 12.0" fill-rule="nonzero"></path><path fill="#000000" fill-opacity="0.0" d="m8.0 304.0l272.0 0l0 32.0l-272.0 0z" fill-rule="nonzero"></path><path fill="#76a5af" d="m114.40625 325.86l-1.25 -3.546875l-4.265625 0l-1.265625 3.546875l-1.46875 0l4.203125 -11.46875l1.328125 0l4.203125 11.46875l-1.484375 0zm-1.71875 -4.828125l-1.15625 -3.3125q-0.046875 -0.140625 -0.109375 -0.34375q-0.0625 -0.203125 -0.140625 -0.4375q-0.0625 -0.234375 -0.140625 -0.484375q-0.0625 -0.265625 -0.125 -0.5q-0.0625 0.234375 -0.140625 0.5q-0.0625 0.25 -0.140625 0.5q-0.0625 0.234375 -0.125 0.4375q-0.0625 0.1875 -0.109375 0.328125l-1.140625 3.3125l3.328125 0zm7.8359375 4.984375q-0.78125 0 -1.46875 -0.25q-0.6875 -0.25 -1.203125 -0.78125q-0.5 -0.53125 -0.796875 -1.359375q-0.28125 -0.84375 -0.28125 -2.015625q0 -1.21875 0.296875 -2.078125q0.296875 -0.859375 0.8125 -1.390625q0.515625 -0.53125 1.203125 -0.765625q0.703125 -0.25 1.5 -0.25q0.609375 0 1.1875 0.140625q0.59375 0.125 0.984375 0.3125l-0.421875 1.203125q-0.1875 -0.078125 -0.40625 -0.140625q-0.21875 -0.078125 -0.453125 -0.140625q-0.234375 -0.0625 -0.46875 -0.09375q-0.21875 -0.03125 -0.421875 -0.03125q-1.21875 0 -1.78125 0.78125q-0.5625 0.78125 -0.5625 2.4375q0 1.65625 0.5625 2.421875q0.5625 0.75 1.71875 0.75q0.640625 0 1.140625 -0.140625q0.515625 -0.140625 0.9375 -0.34375l0 1.265625q-0.421875 0.234375 -0.90625 0.34375q-0.46875 0.125 -1.171875 0.125zm6.71875 -1.171875q0.140625 0 0.3125 -0.015625q0.1875 -0.015625 0.34375 -0.03125q0.171875 -0.03125 0.296875 -0.0625q0.140625 -0.03125 0.21875 -0.046875l0 1.078125q-0.109375 0.046875 -0.265625 0.09375q-0.15625 0.046875 -0.34375 0.078125q-0.1875 0.046875 -0.390625 0.0625q-0.203125 0.015625 -0.390625 0.015625q-0.484375 0 -0.90625 -0.125q-0.40625 -0.125 -0.71875 -0.421875q-0.296875 -0.3125 -0.46875 -0.828125q-0.171875 -0.53125 -0.171875 -1.3125l0 -4.984375l-1.203125 0l0 -0.625l1.203125 -0.609375l0.609375 -1.796875l0.828125 0l0 1.96875l2.15625 0l0 1.0625l-2.15625 0l0 4.984375q0 0.75 0.234375 1.140625q0.25 0.375 0.8125 0.375zm4.25 1.015625l-1.421875 0l0 -8.578125l1.421875 0l0 8.578125zm-1.53125 -10.90625q0 -0.46875 0.234375 -0.671875q0.25 -0.21875 0.59375 -0.21875q0.171875 0 0.328125 0.0625q0.15625 0.046875 0.265625 0.15625q0.109375 0.109375 0.171875 0.28125q0.078125 0.15625 0.078125 0.390625q0 0.453125 -0.25 0.6875q-0.25 0.21875 -0.59375 0.21875q-0.34375 0 -0.59375 -0.21875q-0.234375 -0.21875 -0.234375 -0.6875zm5.828125 10.90625l-2.9375 -8.578125l1.46875 0l1.5625 4.765625q0.078125 0.265625 0.1875 0.671875q0.125 0.40625 0.234375 0.828125q0.125 0.421875 0.21875 0.796875q0.109375 0.375 0.140625 0.5625l0.046875 0q0.046875 -0.1875 0.140625 -0.5625q0.09375 -0.375 0.203125 -0.796875q0.125 -0.421875 0.234375 -0.828125q0.125 -0.40625 0.203125 -0.671875l1.5625 -4.765625l1.46875 0l-2.9375 8.578125l-1.796875 0zm9.4765625 0.15625q-0.859375 0 -1.578125 -0.28125q-0.703125 -0.296875 -1.21875 -0.84375q-0.5 -0.5625 -0.78125 -1.375q-0.28125 -0.828125 -0.28125 -1.890625q0 -1.0625 0.25 -1.890625q0.265625 -0.84375 0.734375 -1.421875q0.46875 -0.578125 1.109375 -0.875q0.65625 -0.3125 1.453125 -0.3125q0.765625 0 1.375 0.28125q0.625 0.265625 1.046875 0.78125q0.4375 0.5 0.671875 1.203125q0.234375 0.703125 0.234375 1.5625l0 0.890625l-5.40625 0q0.03125 1.5 0.625 2.21875q0.609375 0.703125 1.78125 0.703125q0.40625 0 0.734375 -0.03125q0.34375 -0.046875 0.65625 -0.109375q0.328125 -0.078125 0.625 -0.1875q0.296875 -0.125 0.59375 -0.265625l0 1.265625q-0.3125 0.15625 -0.609375 0.265625q-0.296875 0.109375 -0.625 0.171875q-0.3125 0.078125 -0.65625 0.109375q-0.328125 0.03125 -0.734375 0.03125zm-0.34375 -7.71875q-0.890625 0 -1.421875 0.609375q-0.515625 0.609375 -0.59375 1.78125l3.84375 0q0 -0.53125 -0.109375 -0.96875q-0.109375 -0.453125 -0.328125 -0.765625q-0.21875 -0.3125 -0.5625 -0.484375q-0.34375 -0.171875 -0.828125 -0.171875zm18.28125 1.734375q0 1.453125 -0.375 2.546875q-0.375 1.078125 -1.09375 1.8125q-0.703125 0.734375 -1.734375 1.109375q-1.03125 0.359375 -2.34375 0.359375l-2.859375 0l0 -11.421875l3.171875 0q1.203125 0 2.171875 0.359375q0.96875 0.359375 1.640625 1.0625q0.6875 0.703125 1.046875 1.75q0.375 1.046875 0.375 2.421875zm-1.53125 0.046875q0 -1.140625 -0.265625 -1.96875q-0.25 -0.828125 -0.75 -1.359375q-0.484375 -0.546875 -1.203125 -0.8125q-0.71875 -0.265625 -1.640625 -0.265625l-1.5625 0l0 8.9375l1.265625 0q2.0625 0 3.109375 -1.140625q1.046875 -1.140625 1.046875 -3.390625zm9.9921875 5.78125l-5.921875 0l0 -11.421875l5.921875 0l0 1.28125l-4.46875 0l0 3.53125l4.171875 0l0 1.265625l-4.171875 0l0 4.0625l4.46875 0l0 1.28125zm9.3671875 -8.078125q0 0.703125 -0.21875 1.359375q-0.21875 0.65625 -0.71875 1.171875q-0.484375 0.5 -1.296875 0.796875q-0.796875 0.296875 -1.984375 0.296875l-1.171875 0l0 4.453125l-1.453125 0l0 -11.421875l2.828125 0q1.046875 0 1.796875 0.21875q0.765625 0.21875 1.25 0.65625q0.5 0.421875 0.734375 1.046875q0.234375 0.625 0.234375 1.421875zm-5.390625 2.390625l1.0 0q0.734375 0 1.265625 -0.125q0.546875 -0.125 0.90625 -0.390625q0.359375 -0.28125 0.53125 -0.71875q0.1875 -0.453125 0.1875 -1.078125q0 -1.109375 -0.640625 -1.640625q-0.640625 -0.546875 -2.0 -0.546875l-1.25 0l0 4.5z" fill-rule="nonzero"></path><path fill="#ffe599" d="m336.0 168.0l104.0 0l0 32.0l-104.0 0z" fill-rule="nonzero"></path><path stroke="#bf9000" stroke-width="2.0" stroke-linejoin="round" stroke-linecap="butt" d="m336.0 168.0l104.0 0l0 32.0l-104.0 0z" fill-rule="nonzero"></path><path fill="#000000" d="m361.90234 189.86l-0.296875 -1.1875l-0.0625 0q-0.25 0.34375 -0.515625 0.609375q-0.25 0.25 -0.5625 0.421875q-0.296875 0.15625 -0.671875 0.234375q-0.375 0.078125 -0.875 0.078125q-0.53125 0 -0.984375 -0.15625q-0.453125 -0.15625 -0.796875 -0.46875q-0.328125 -0.3125 -0.515625 -0.796875q-0.1875 -0.484375 -0.1875 -1.140625q0 -1.28125 0.90625 -1.96875q0.90625 -0.6875 2.75 -0.75l1.4375 -0.046875l0 -0.546875q0 -0.515625 -0.125 -0.859375q-0.109375 -0.359375 -0.328125 -0.578125q-0.203125 -0.21875 -0.53125 -0.3125q-0.3125 -0.09375 -0.71875 -0.09375q-0.640625 0 -1.203125 0.1875q-0.5625 0.1875 -1.078125 0.453125l-0.5 -1.0625q0.578125 -0.3125 1.28125 -0.53125q0.71875 -0.21875 1.5 -0.21875q0.796875 0 1.375 0.15625q0.59375 0.15625 0.96875 0.515625q0.375 0.34375 0.5625 0.890625q0.1875 0.53125 0.1875 1.296875l0 5.875l-1.015625 0zm-2.609375 -1.0q0.46875 0 0.875 -0.140625q0.40625 -0.15625 0.703125 -0.453125q0.296875 -0.296875 0.46875 -0.75q0.171875 -0.46875 0.171875 -1.078125l0 -0.78125l-1.125 0.0625q-0.703125 0.03125 -1.1875 0.15625q-0.46875 0.125 -0.75 0.34375q-0.28125 0.21875 -0.40625 0.546875q-0.125 0.3125 -0.125 0.703125q0 0.71875 0.375 1.0625q0.375 0.328125 1.0 0.328125zm9.5390625 1.15625q-0.78125 0 -1.46875 -0.25q-0.6875 -0.25 -1.203125 -0.78125q-0.5 -0.53125 -0.796875 -1.359375q-0.28125 -0.84375 -0.28125 -2.015625q0 -1.21875 0.296875 -2.078125q0.296875 -0.859375 0.8125 -1.390625q0.515625 -0.53125 1.203125 -0.765625q0.703125 -0.25 1.5 -0.25q0.609375 0 1.1875 0.140625q0.59375 0.125 0.984375 0.3125l-0.421875 1.203125q-0.1875 -0.078125 -0.40625 -0.140625q-0.21875 -0.078125 -0.453125 -0.140625q-0.234375 -0.0625 -0.46875 -0.09375q-0.21875 -0.03125 -0.421875 -0.03125q-1.21875 0 -1.78125 0.78125q-0.5625 0.78125 -0.5625 2.4375q0 1.65625 0.5625 2.421875q0.5625 0.75 1.71875 0.75q0.640625 0 1.140625 -0.140625q0.515625 -0.140625 0.9375 -0.34375l0 1.265625q-0.421875 0.234375 -0.90625 0.34375q-0.46875 0.125 -1.171875 0.125zm7.40625 0q-0.78125 0 -1.46875 -0.25q-0.6875 -0.25 -1.203125 -0.78125q-0.5 -0.53125 -0.796875 -1.359375q-0.28125 -0.84375 -0.28125 -2.015625q0 -1.21875 0.296875 -2.078125q0.296875 -0.859375 0.8125 -1.390625q0.515625 -0.53125 1.203125 -0.765625q0.703125 -0.25 1.5 -0.25q0.609375 0 1.1875 0.140625q0.59375 0.125 0.984375 0.3125l-0.421875 1.203125q-0.1875 -0.078125 -0.40625 -0.140625q-0.21875 -0.078125 -0.453125 -0.140625q-0.234375 -0.0625 -0.46875 -0.09375q-0.21875 -0.03125 -0.421875 -0.03125q-1.21875 0 -1.78125 0.78125q-0.5625 0.78125 -0.5625 2.4375q0 1.65625 0.5625 2.421875q0.5625 0.75 1.71875 0.75q0.640625 0 1.140625 -0.140625q0.515625 -0.140625 0.9375 -0.34375l0 1.265625q-0.421875 0.234375 -0.90625 0.34375q-0.46875 0.125 -1.171875 0.125zm7.515625 0q-0.859375 0 -1.578125 -0.28125q-0.703125 -0.296875 -1.21875 -0.84375q-0.5 -0.5625 -0.78125 -1.375q-0.28125 -0.828125 -0.28125 -1.890625q0 -1.0625 0.25 -1.890625q0.265625 -0.84375 0.734375 -1.421875q0.46875 -0.578125 1.109375 -0.875q0.65625 -0.3125 1.453125 -0.3125q0.765625 0 1.375 0.28125q0.625 0.265625 1.046875 0.78125q0.4375 0.5 0.671875 1.203125q0.234375 0.703125 0.234375 1.5625l0 0.890625l-5.40625 0q0.03125 1.5 0.625 2.21875q0.609375 0.703125 1.78125 0.703125q0.40625 0 0.734375 -0.03125q0.34375 -0.046875 0.65625 -0.109375q0.328125 -0.078125 0.625 -0.1875q0.296875 -0.125 0.59375 -0.265625l0 1.265625q-0.3125 0.15625 -0.609375 0.265625q-0.296875 0.109375 -0.625 0.171875q-0.3125 0.078125 -0.65625 0.109375q-0.328125 0.03125 -0.734375 0.03125zm-0.34375 -7.71875q-0.890625 0 -1.421875 0.609375q-0.515625 0.609375 -0.59375 1.78125l3.84375 0q0 -0.53125 -0.109375 -0.96875q-0.109375 -0.453125 -0.328125 -0.765625q-0.21875 -0.3125 -0.5625 -0.484375q-0.34375 -0.171875 -0.828125 -0.171875zm9.390625 7.71875q-0.453125 0 -0.828125 -0.109375q-0.375 -0.09375 -0.6875 -0.265625q-0.296875 -0.171875 -0.53125 -0.390625q-0.21875 -0.234375 -0.40625 -0.484375l-0.09375 0q0.03125 0.265625 0.046875 0.515625q0.015625 0.203125 0.03125 0.421875q0.015625 0.21875 0.015625 0.34375l0 3.65625l-1.421875 0l0 -12.421875l1.15625 0l0.203125 1.15625l0.0625 0q0.1875 -0.28125 0.40625 -0.515625q0.234375 -0.234375 0.53125 -0.40625q0.296875 -0.1875 0.671875 -0.28125q0.375 -0.109375 0.84375 -0.109375q0.734375 0 1.328125 0.28125q0.609375 0.28125 1.03125 0.84375q0.4375 0.546875 0.671875 1.375q0.234375 0.828125 0.234375 1.921875q0 1.109375 -0.234375 1.9375q-0.234375 0.828125 -0.671875 1.390625q-0.421875 0.5625 -1.03125 0.859375q-0.59375 0.28125 -1.328125 0.28125zm-0.265625 -7.71875q-0.59375 0 -1.015625 0.1875q-0.40625 0.171875 -0.65625 0.546875q-0.25 0.359375 -0.375 0.90625q-0.125 0.546875 -0.140625 1.296875l0 0.3125q0 0.796875 0.109375 1.40625q0.109375 0.609375 0.359375 1.03125q0.25 0.421875 0.671875 0.640625q0.421875 0.203125 1.0625 0.203125q1.046875 0 1.546875 -0.84375q0.5 -0.859375 0.5 -2.453125q0 -1.625 -0.5 -2.421875q-0.5 -0.8125 -1.5625 -0.8125zm8.359375 6.546875q0.140625 0 0.3125 -0.015625q0.1875 -0.015625 0.34375 -0.03125q0.171875 -0.03125 0.296875 -0.0625q0.140625 -0.03125 0.21875 -0.046875l0 1.078125q-0.109375 0.046875 -0.265625 0.09375q-0.15625 0.046875 -0.34375 0.078125q-0.1875 0.046875 -0.390625 0.0625q-0.203125 0.015625 -0.390625 0.015625q-0.484375 0 -0.90625 -0.125q-0.40625 -0.125 -0.71875 -0.421875q-0.296875 -0.3125 -0.46875 -0.828125q-0.171875 -0.53125 -0.171875 -1.3125l0 -4.984375l-1.203125 0l0 -0.625l1.203125 -0.609375l0.609375 -1.796875l0.828125 0l0 1.96875l2.15625 0l0 1.0625l-2.15625 0l0 4.984375q0 0.75 0.234375 1.140625q0.25 0.375 0.8125 0.375zm6.21875 1.171875q-0.859375 0 -1.578125 -0.28125q-0.703125 -0.296875 -1.21875 -0.84375q-0.5 -0.5625 -0.78125 -1.375q-0.28125 -0.828125 -0.28125 -1.890625q0 -1.0625 0.25 -1.890625q0.265625 -0.84375 0.734375 -1.421875q0.46875 -0.578125 1.109375 -0.875q0.65625 -0.3125 1.453125 -0.3125q0.765625 0 1.375 0.28125q0.625 0.265625 1.046875 0.78125q0.4375 0.5 0.671875 1.203125q0.234375 0.703125 0.234375 1.5625l0 0.890625l-5.40625 0q0.03125 1.5 0.625 2.21875q0.609375 0.703125 1.78125 0.703125q0.40625 0 0.734375 -0.03125q0.34375 -0.046875 0.65625 -0.109375q0.328125 -0.078125 0.625 -0.1875q0.296875 -0.125 0.59375 -0.265625l0 1.265625q-0.3125 0.15625 -0.609375 0.265625q-0.296875 0.109375 -0.625 0.171875q-0.3125 0.078125 -0.65625 0.109375q-0.328125 0.03125 -0.734375 0.03125zm-0.34375 -7.71875q-0.890625 0 -1.421875 0.609375q-0.515625 0.609375 -0.59375 1.78125l3.84375 0q0 -0.53125 -0.109375 -0.96875q-0.109375 -0.453125 -0.328125 -0.765625q-0.21875 -0.3125 -0.5625 -0.484375q-0.34375 -0.171875 -0.828125 -0.171875zm10.8125 6.40625l-0.0625 0q-0.171875 0.265625 -0.40625 0.515625q-0.21875 0.234375 -0.53125 0.421875q-0.296875 0.171875 -0.671875 0.265625q-0.375 0.109375 -0.84375 0.109375q-0.71875 0 -1.328125 -0.28125q-0.59375 -0.28125 -1.03125 -0.84375q-0.421875 -0.5625 -0.65625 -1.390625q-0.234375 -0.828125 -0.234375 -1.921875q0 -1.09375 0.234375 -1.921875q0.234375 -0.84375 0.65625 -1.40625q0.4375 -0.5625 1.03125 -0.84375q0.609375 -0.28125 1.328125 -0.28125q0.46875 0 0.84375 0.109375q0.375 0.09375 0.671875 0.265625q0.296875 0.171875 0.53125 0.40625q0.234375 0.21875 0.40625 0.46875l0.09375 0q-0.015625 -0.265625 -0.046875 -0.515625q-0.015625 -0.203125 -0.03125 -0.40625q-0.015625 -0.21875 -0.015625 -0.34375l0 -3.40625l1.421875 0l0 12.15625l-1.140625 0l-0.21875 -1.15625zm-2.234375 0.125q0.59375 0 1.0 -0.171875q0.40625 -0.1875 0.65625 -0.546875q0.265625 -0.375 0.375 -0.921875q0.125 -0.546875 0.140625 -1.28125l0 -0.328125q0 -0.78125 -0.109375 -1.390625q-0.09375 -0.625 -0.359375 -1.03125q-0.25 -0.421875 -0.671875 -0.640625q-0.421875 -0.21875 -1.046875 -0.21875q-1.0625 0 -1.5625 0.859375q-0.484375 0.84375 -0.484375 2.4375q0 1.640625 0.484375 2.4375q0.5 0.796875 1.578125 0.796875z" fill-rule="nonzero"></path><path fill="#d9d9d9" d="m336.0 120.0l104.0 0l0 32.0l-104.0 0z" fill-rule="nonzero"></path><path stroke="#999999" stroke-width="2.0" stroke-linejoin="round" stroke-linecap="butt" d="m336.0 120.0l104.0 0l0 32.0l-104.0 0z" fill-rule="nonzero"></path><path fill="#000000" d="m369.67188 142.01625q-0.78125 0 -1.46875 -0.25q-0.6875 -0.25 -1.203125 -0.78125q-0.5 -0.53125 -0.796875 -1.359375q-0.28125 -0.84375 -0.28125 -2.015625q0 -1.21875 0.296875 -2.078125q0.296875 -0.859375 0.8125 -1.390625q0.515625 -0.53125 1.203125 -0.765625q0.703125 -0.25 1.5 -0.25q0.609375 0 1.1875 0.140625q0.59375 0.125 0.984375 0.3125l-0.421875 1.203125q-0.1875 -0.078125 -0.40625 -0.140625q-0.21875 -0.078125 -0.453125 -0.140625q-0.234375 -0.0625 -0.46875 -0.09375q-0.21875 -0.03125 -0.421875 -0.03125q-1.21875 0 -1.78125 0.78125q-0.5625 0.78125 -0.5625 2.4375q0 1.65625 0.5625 2.421875q0.5625 0.75 1.71875 0.75q0.640625 0 1.140625 -0.140625q0.515625 -0.140625 0.9375 -0.34375l0 1.265625q-0.421875 0.234375 -0.90625 0.34375q-0.46875 0.125 -1.171875 0.125zm5.546875 -0.15625l-1.421875 0l0 -12.15625l1.421875 0l0 12.15625zm9.71875 -4.3125q0 1.078125 -0.265625 1.90625q-0.265625 0.828125 -0.75 1.40625q-0.484375 0.5625 -1.1875 0.859375q-0.6875 0.296875 -1.5625 0.296875q-0.796875 0 -1.484375 -0.296875q-0.671875 -0.296875 -1.171875 -0.859375q-0.5 -0.578125 -0.78125 -1.40625q-0.265625 -0.828125 -0.265625 -1.90625q0 -1.0625 0.25 -1.875q0.265625 -0.828125 0.75 -1.390625q0.484375 -0.578125 1.1875 -0.859375q0.703125 -0.296875 1.5625 -0.296875q0.8125 0 1.484375 0.296875q0.6875 0.28125 1.171875 0.859375q0.5 0.5625 0.78125 1.390625q0.28125 0.8125 0.28125 1.875zm-6.0 0q0 1.640625 0.53125 2.46875q0.53125 0.8125 1.734375 0.8125q1.203125 0 1.734375 -0.8125q0.53125 -0.828125 0.53125 -2.46875q0 -1.625 -0.546875 -2.4375q-0.53125 -0.8125 -1.734375 -0.8125q-1.203125 0 -1.734375 0.8125q-0.515625 0.8125 -0.515625 2.4375zm13.375 1.953125q0 0.625 -0.234375 1.09375q-0.21875 0.46875 -0.65625 0.796875q-0.421875 0.3125 -1.03125 0.46875q-0.59375 0.15625 -1.34375 0.15625q-0.84375 0 -1.453125 -0.140625q-0.609375 -0.140625 -1.078125 -0.40625l0 -1.296875q0.25 0.125 0.546875 0.25q0.296875 0.125 0.625 0.21875q0.328125 0.09375 0.671875 0.15625q0.34375 0.046875 0.6875 0.046875q0.515625 0 0.859375 -0.078125q0.359375 -0.09375 0.578125 -0.25q0.234375 -0.15625 0.328125 -0.390625q0.109375 -0.234375 0.109375 -0.515625q0 -0.234375 -0.078125 -0.421875q-0.078125 -0.203125 -0.296875 -0.390625q-0.203125 -0.203125 -0.5625 -0.390625q-0.359375 -0.203125 -0.921875 -0.4375q-0.5625 -0.25 -1.015625 -0.484375q-0.4375 -0.234375 -0.75 -0.515625q-0.3125 -0.296875 -0.484375 -0.671875q-0.171875 -0.375 -0.171875 -0.90625q0 -0.546875 0.21875 -0.96875q0.21875 -0.421875 0.609375 -0.703125q0.390625 -0.296875 0.9375 -0.4375q0.546875 -0.15625 1.21875 -0.15625q0.75 0 1.375 0.171875q0.640625 0.15625 1.203125 0.421875l-0.5 1.140625q-0.5 -0.21875 -1.046875 -0.390625q-0.53125 -0.171875 -1.078125 -0.171875q-0.796875 0 -1.1875 0.265625q-0.375 0.265625 -0.375 0.75q0 0.265625 0.078125 0.46875q0.09375 0.203125 0.3125 0.390625q0.21875 0.171875 0.578125 0.359375q0.375 0.1875 0.921875 0.40625q0.5625 0.234375 1.0 0.46875q0.453125 0.234375 0.765625 0.53125q0.3125 0.296875 0.46875 0.671875q0.171875 0.375 0.171875 0.890625zm5.46875 2.515625q-0.859375 0 -1.578125 -0.28125q-0.703125 -0.296875 -1.21875 -0.84375q-0.5 -0.5625 -0.78125 -1.375q-0.28125 -0.828125 -0.28125 -1.890625q0 -1.0625 0.25 -1.890625q0.265625 -0.84375 0.734375 -1.421875q0.46875 -0.578125 1.109375 -0.875q0.65625 -0.3125 1.453125 -0.3125q0.765625 0 1.375 0.28125q0.625 0.265625 1.046875 0.78125q0.4375 0.5 0.671875 1.203125q0.234375 0.703125 0.234375 1.5625l0 0.890625l-5.40625 0q0.03125 1.5 0.625 2.21875q0.609375 0.703125 1.78125 0.703125q0.40625 0 0.734375 -0.03125q0.34375 -0.046875 0.65625 -0.109375q0.328125 -0.078125 0.625 -0.1875q0.296875 -0.125 0.59375 -0.265625l0 1.265625q-0.3125 0.15625 -0.609375 0.265625q-0.296875 0.109375 -0.625 0.171875q-0.3125 0.078125 -0.65625 0.109375q-0.328125 0.03125 -0.734375 0.03125zm-0.34375 -7.71875q-0.890625 0 -1.421875 0.609375q-0.515625 0.609375 -0.59375 1.78125l3.84375 0q0 -0.53125 -0.109375 -0.96875q-0.109375 -0.453125 -0.328125 -0.765625q-0.21875 -0.3125 -0.5625 -0.484375q-0.34375 -0.171875 -0.828125 -0.171875zm10.8125 6.40625l-0.0625 0q-0.171875 0.265625 -0.40625 0.515625q-0.21875 0.234375 -0.53125 0.421875q-0.296875 0.171875 -0.671875 0.265625q-0.375 0.109375 -0.84375 0.109375q-0.71875 0 -1.328125 -0.28125q-0.59375 -0.28125 -1.03125 -0.84375q-0.421875 -0.5625 -0.65625 -1.390625q-0.234375 -0.828125 -0.234375 -1.921875q0 -1.09375 0.234375 -1.921875q0.234375 -0.84375 0.65625 -1.40625q0.4375 -0.5625 1.03125 -0.84375q0.609375 -0.28125 1.328125 -0.28125q0.46875 0 0.84375 0.109375q0.375 0.09375 0.671875 0.265625q0.296875 0.171875 0.53125 0.40625q0.234375 0.21875 0.40625 0.46875l0.09375 0q-0.015625 -0.265625 -0.046875 -0.515625q-0.015625 -0.203125 -0.03125 -0.40625q-0.015625 -0.21875 -0.015625 -0.34375l0 -3.40625l1.421875 0l0 12.15625l-1.140625 0l-0.21875 -1.15625zm-2.234375 0.125q0.59375 0 1.0 -0.171875q0.40625 -0.1875 0.65625 -0.546875q0.265625 -0.375 0.375 -0.921875q0.125 -0.546875 0.140625 -1.28125l0 -0.328125q0 -0.78125 -0.109375 -1.390625q-0.09375 -0.625 -0.359375 -1.03125q-0.25 -0.421875 -0.671875 -0.640625q-0.421875 -0.21875 -1.046875 -0.21875q-1.0625 0 -1.5625 0.859375q-0.484375 0.84375 -0.484375 2.4375q0 1.640625 0.484375 2.4375q0.5 0.796875 1.578125 0.796875z" fill-rule="nonzero"></path><path fill="#000000" fill-opacity="0.0" d="m388.0 200.0c0 6.0 0.01574707 9.0 0.03149414 12.0c0.01574707 3.0 0.03149414 6.0 0.03149414 12.0" fill-rule="nonzero"></path><path stroke="#000000" stroke-width="2.0" stroke-linejoin="round" stroke-linecap="butt" d="m388.0 200.0c0 6.0 0.01574707 9.0 0.03149414 12.0l0 4.5776367E-5" fill-rule="evenodd"></path><path fill="#000000" stroke="#000000" stroke-width="2.0" stroke-linecap="butt" d="m384.72806 212.00871l3.3272705 9.06749l3.2796326 -9.084824z" fill-rule="evenodd"></path></g></svg>

